SplineFontDB: 3.0
FontName: BloomingGrove
FullName: Blooming Grove
FamilyName: BloomingGrove
Weight: Medium
Copyright: Created by Nathan Eady, using Inkscape (http://www.inkscape.org) and FontForge 2.0 (http://fontforge.sf.net).  This font has been released into the public domain by the author.
UComments: "Blooming Grove is a primarily sans-serif font face with a smooth, curvy, rounded look.  It is named for a small town in Ohio." 
FontLog: "2008-04-06: Conceived.+AAoA-2008-04-08: Lowercase glyphs created in Inkscape.+AAoA-2008-04-17: Uppercase glyphs created in Inkscape.+AAoA-2009-08-27: Created using FontForge.+AAoA-2009-09-05: All letter and numeral glyphs present, plus most of the major punctuation.+AAoA-2009-09-07: All printable ASCII characters represented, plus cent, section, copyright, registered, plus-or-minus, degree, broken bar, and the upside-down exclamation and question marks.+AAoA-2009-09-08: Scaled all glyphs to 1.5 times their former size.  Began revising metrics.+AAoA-2009-09-13: Introduced larger glyphs for the arithmetic operators (some of which also have other meanings).+AAoA-2009-09-15: Redid the metrics, with an initial try at class-based kerning.  Kerning may need further work." 
Version: 006.000
DefaultBaseFilename: bgrove
ItalicAngle: 0
UnderlinePosition: -75
UnderlineWidth: 50
Ascent: 750
Descent: 250
LayerCount: 2
Layer: 0 0 "Back"  1
Layer: 1 0 "Fore"  0
XUID: [1021 955 550171202 4380082]
FSType: 8
OS2Version: 0
OS2_WeightWidthSlopeOnly: 0
OS2_UseTypoMetrics: 1
CreationTime: 1251430800
ModificationTime: 1253242944
PfmFamily: 17
TTFWeight: 500
TTFWidth: 5
LineGap: 90
VLineGap: 0
OS2TypoAscent: 0
OS2TypoAOffset: 1
OS2TypoDescent: 0
OS2TypoDOffset: 1
OS2TypoLinegap: 90
OS2WinAscent: 0
OS2WinAOffset: 1
OS2WinDescent: 0
OS2WinDOffset: 1
HheadAscent: 0
HheadAOffset: 1
HheadDescent: 0
HheadDOffset: 1
OS2Vendor: 'PfEd'
Lookup: 258 0 0 "kern"  {"'kern'"  } ['kern' ('DFLT' <'dflt' > 'latn' <'dflt' > ) ]
DEI: 91125
KernClass2: 14 12 "'kern'" 

StartChar: a
Encoding: 97 97 0
Width: 500
VWidth: -255
Flags: W
HStem: 0 41<167.688 322.368> 367 41<167.688 322.368>
VStem: 40 41<127.688 280.312> 407 41<0 81 126.314 281.686 327 408>
LayerCount: 2
Fore
SplineSet
244 408 m 0
 310 408 370 376 407 327 c 1
 407 397 l 2
 407 402 412 408 417 408 c 2
 438 408 l 2
 443 408 448 402 448 397 c 2
 448 11 l 2
 448 6 443 0 438 0 c 2
 417 0 l 2
 412 0 407 6 407 11 c 2
 407 81 l 1
 370 32 310 0 244 0 c 0
 131 0 40 91 40 204 c 0
 40 317 131 408 244 408 c 0
244 367 m 0
 154 367 81 294 81 204 c 0
 81 114 154 41 244 41 c 0
 334 41 407 114 407 204 c 0
 407 294 334 367 244 367 c 0
EndSplineSet
Validated: 1
EndChar

StartChar: uni0000
Encoding: 0 0 1
Width: 687
VWidth: -610
Flags: W
HStem: -1 42<115.567 589.433> 751 42<115.567 589.433>
VStem: 60 41<54.6315 737.369> 603 42<54.567 737.433>
LayerCount: 2
Fore
SplineSet
158 793 m 2
 547 793 l 2
 601 793 645 749 645 695 c 2
 645 97 l 2
 645 43 601 -1 547 -1 c 2
 158 -1 l 2
 104 -1 60 43 60 97 c 2
 60 695 l 2
 60 749 104 793 158 793 c 2
547 751 m 2
 158 751 l 2
 127 751 101 726 101 695 c 2
 101 97 l 2
 101 66 127 41 158 41 c 2
 547 41 l 2
 578 41 603 66 603 97 c 2
 603 695 l 2
 603 726 578 751 547 751 c 2
EndSplineSet
Validated: 1
EndChar

StartChar: b
Encoding: 98 98 2
Width: 500
VWidth: -255
Flags: W
HStem: 1 41<177.77 332.312> 367 41<177.77 334.616> 770 20G<60.5 86.5>
VStem: 53 41<2 82 127.643 282.164 328 790> 419 41<128.688 281.127>
LayerCount: 2
Fore
SplineSet
63 790 m 2
 84 790 l 2
 89 790 94 784 94 779 c 2
 94 328 l 1
 131 377 190 408 256 408 c 0
 369 408 460 318 460 205 c 0
 460 92 369 1 256 1 c 0
 190 1 131 33 94 82 c 1
 94 13 l 2
 94 8 89 2 84 2 c 2
 63 2 l 2
 58 2 53 8 53 13 c 2
 53 194 l 2
 53 197 52 201 52 205 c 0
 52 209 53 212 53 215 c 2
 53 779 l 2
 53 784 58 790 63 790 c 2
256 367 m 0
 170 367 100 301 94 216 c 1
 94 194 l 1
 100 109 170 42 256 42 c 0
 346 42 419 115 419 205 c 0
 419 295 346 367 256 367 c 0
EndSplineSet
Validated: 1
EndChar

StartChar: c
Encoding: 99 99 3
Width: 423
VWidth: -660
Flags: W
HStem: 0 41<167.688 320.844> 367 41<167.688 319.019>
VStem: 40 41<127.688 280.312>
LayerCount: 2
Fore
SplineSet
244 408 m 0
 309.453 408 378 369.098 378 353 c 0
 378 350 377 347 375 345 c 2
 361 332 l 2
 359.014 330.411 356.872 329.712 354.515 329.712 c 0
 337.293 329.712 308.516 367 244 367 c 0
 154 367 81 294 81 204 c 0
 81 114 154 41 244 41 c 0
 286.822 41 331.3 63.2998 345 77 c 0
 349 80 356 81 361 77 c 2
 375 64 l 2
 377.473 61.5273 378.507 59.0361 378.507 56.5889 c 0
 378.507 42.6758 314.94 0 244 0 c 0
 131 0 40 91 40 204 c 0
 40 317 131 408 244 408 c 0
EndSplineSet
Validated: 1
EndChar

StartChar: d
Encoding: 100 100 4
Width: 499
VWidth: -256
Flags: W
HStem: 1 41<166.873 321.548> 367 41<166.873 321.548> 770 20G<413.5 439.5>
VStem: 40 41<126.384 281.127> 406 41<2 82 127.643 282.164 328 790>
LayerCount: 2
Fore
SplineSet
437 790 m 2
 442 790 447 784 447 779 c 2
 447 13 l 2
 447 8 442 2 437 2 c 2
 416 2 l 2
 411 2 406 8 406 13 c 2
 406 82 l 1
 369 33 309 1 243 1 c 0
 130 1 40 92 40 205 c 0
 40 318 130 408 243 408 c 0
 309 408 369 377 406 328 c 1
 406 779 l 2
 406 784 411 790 416 790 c 2
 437 790 l 2
243 367 m 0
 153 367 81 295 81 205 c 0
 81 115 153 42 243 42 c 0
 329 42 400 109 406 194 c 1
 406 216 l 1
 400 301 329 367 243 367 c 0
EndSplineSet
Validated: 1
EndChar

StartChar: e
Encoding: 101 101 5
Width: 487
VWidth: -256
Flags: W
HStem: 2 41<166.314 335.892> 189 41<151 404> 368 41<167.688 319.646>
VStem: 40 41<128.873 281.312>
LayerCount: 2
Fore
SplineSet
244 409 m 0
 356 409 447 318 447 206 c 0
 447 197 l 0
 447 193 442 189 438 189 c 2
 162 189 l 2
 157 189 151 194 151 199 c 2
 151 220 l 2
 151 225 157 230 162 230 c 2
 404 230 l 1
 392 308 325 368 244 368 c 0
 154 368 81 295 81 205 c 0
 81 115 154 43 244 43 c 2
 268 43 l 1
 284.907 44.5371 329 46 377 94 c 1
 384.423 103.926 391.614 113.637 400.191 113.637 c 0
 401.431 113.637 402.698 113.434 404 113 c 1
 422 104 l 2
 425.329 102.002 426.827 99.5049 426.827 96.4111 c 0
 426.827 89.8936 420.182 80.7266 410 68 c 1
 393.8 49.7744 342.639 7.18848 270 2 c 1
 244 2 l 2
 131 2 40 92 40 205 c 0
 40 318 131 409 244 409 c 0
EndSplineSet
Validated: 1
EndChar

StartChar: f
Encoding: 102 102 6
Width: 595
VWidth: -255
Flags: W
HStem: 1 21G<156.5 182.5> 367 41<46 149 190 453> 752 41<275.228 430.819>
VStem: 149 41<1 367 408 667.454> 515 41<575 666.11>
LayerCount: 2
Fore
SplineSet
353 793 m 0
 465 793 555 704 556 592 c 1
 556 586 l 2
 556 581 551 575 546 575 c 2
 525 575 l 2
 520 575 515 581 515 586 c 2
 515 592 l 1
 514 681 442 752 353 752 c 0
 263 752 190 680 190 590 c 2
 190 408 l 1
 442 408 l 2
 447 408 453 403 453 398 c 2
 453 377 l 2
 453 372 447 367 442 367 c 2
 190 367 l 1
 190 12 l 2
 190 7 185 1 180 1 c 2
 159 1 l 2
 154 1 149 7 149 12 c 2
 149 367 l 1
 56 367 l 2
 51 367 46 372 46 377 c 2
 46 398 l 2
 46 403 51 408 56 408 c 2
 149 408 l 1
 149 596 l 1
 152 706 243 793 353 793 c 0
EndSplineSet
Validated: 1
EndChar

StartChar: g
Encoding: 103 103 7
Width: 500
VWidth: -255
Flags: W
HStem: -382 41<165.987 321.578> 1 41<167.688 322.23> 368 41<167.688 322.23>
VStem: 40 41<-255.11 -164 128.688 281.312> 406 42<-256.454 82 127.643 282.357 328 408>
LayerCount: 2
Fore
SplineSet
244 409 m 0
 310 409 369 377 406 328 c 1
 406 397 l 2
 406 402 412 408 417 408 c 2
 437 408 l 2
 442 408 448 402 448 397 c 2
 448 -179 l 1
 447 -185 l 1
 444 -295 354 -382 244 -382 c 0
 132 -382 41 -293 40 -181 c 1
 40 -175 l 2
 40 -170 45 -164 50 -164 c 2
 71 -164 l 2
 76 -164 81 -170 81 -175 c 2
 81 -181 l 1
 82 -270 155 -341 244 -341 c 0
 334 -341 406 -269 406 -179 c 2
 406 82 l 1
 369 33 310 1 244 1 c 0
 131 1 40 92 40 205 c 0
 40 318 131 409 244 409 c 0
244 368 m 0
 154 368 81 295 81 205 c 0
 81 115 154 42 244 42 c 0
 330 42 400 109 406 194 c 1
 406 216 l 1
 400 301 330 368 244 368 c 0
EndSplineSet
Validated: 1
EndChar

StartChar: h
Encoding: 104 104 8
Width: 512
VWidth: -257
Flags: W
HStem: -1 21G<60.5 86.5 426.5 452.5> -1 21G<60.5 86.5 426.5 452.5> 365 41<177.77 331.721>
VStem: 53 41<-1 279.357 325 787> 419 41<-1 277.388>
LayerCount: 2
Fore
SplineSet
63 787 m 2xb8
 84 787 l 2
 89 787 94 781 94 776 c 2
 94 325 l 1
 131 374 190 406 256 406 c 0
 368 406 459 315 460 203 c 1
 460 10 l 2
 460 5 455 -1 450 -1 c 2
 429 -1 l 2
 424 -1 419 5 419 10 c 0
 419 74.333 419 138.667 419 203 c 0
 418 292 345 365 256 365 c 0
 170 365 100 298 94 213 c 1
 94 10 l 2
 94 5 89 -1 84 -1 c 2
 63 -1 l 2
 58 -1 53 5 53 10 c 2
 53 192 l 2
 53 195 52 198 52 202 c 0
 52 206 53 210 53 213 c 2
 53 776 l 2
 53 781 58 787 63 787 c 2xb8
EndSplineSet
Validated: 1
EndChar

StartChar: i
Encoding: 105 105 9
Width: 323
VWidth: -460
Flags: W
HStem: 1.45117 41.25<46.0096 141.299 182.549 277.65> 367.779 41.25<74.369 141.294> 488.576 59.2031<123.955 182.453>
VStem: 123.955 58.5<488.587 547.768> 141.299 41.25<42.7062 367.779>
LayerCount: 2
Fore
SplineSet
138.486 547.779 m 2xf0
 167.924 547.779 l 2
 175.292 547.942 182.805 539.028 182.455 532.639 c 2
 182.455 503.717 l 2
 182.805 497.328 175.292 488.414 167.924 488.576 c 2
 138.486 488.576 l 2
 131.409 488.561 124.188 497.183 123.955 503.717 c 2
 123.955 532.639 l 2
 124.188 539.176 131.409 547.797 138.486 547.779 c 2xf0
85.0488 409.029 m 2
 172.283 409.029 l 2
 177.479 409.146 182.795 402.66 182.549 398.154 c 2
 182.549 56.5762 l 2
 182.689 49.9072 190.961 42.6973 198.393 42.7012 c 2
 266.971 42.7012 l 2
 271.579 42.5371 277.67 37.4268 277.658 32.4355 c 2
 277.658 11.7168 l 2
 277.772 6.52148 271.477 1.20508 266.971 1.45117 c 2
 172.283 1.45117 l 1
 151.564 1.2168 l 2
 151.219 1.2168 150.877 1.39746 150.533 1.45117 c 2
 56.6895 1.45117 l 2
 52.1836 1.20508 45.8857 6.52148 46.002 11.7168 c 2
 46.002 32.4355 l 2
 45.9883 37.4268 52.0811 42.5371 56.6895 42.7012 c 2
 125.408 42.7012 l 2
 133.612 42.7227 141.678 48.3076 141.299 56.5762 c 2
 141.299 354.139 l 2xe8
 141.299 360.955 134.514 367.779 127.236 367.779 c 2
 85.0488 367.779 l 2
 80.543 367.533 74.2451 372.852 74.3613 378.045 c 2
 74.3613 398.764 l 2
 74.3477 403.755 80.4404 408.865 85.0488 409.029 c 2
EndSplineSet
Validated: 1
EndChar

StartChar: j
Encoding: 106 106 10
Width: 235
VWidth: -460
Flags: W
HStem: -381.682 41.25<-99.2764 55.5944> 367.193 41.2969<74.3984 141.323> 487.475 59.2031<123.984 182.482>
VStem: -225 41.2969<-256.199 -163.205> 123.984 58.5<487.486 546.667> 141.328 41.2969<-255.453 366.005>
LayerCount: 2
Fore
SplineSet
138.516 546.678 m 2xf8
 167.953 546.678 l 2
 175.32 546.841 182.833 537.929 182.484 531.537 c 2
 182.484 502.615 l 2
 182.833 496.227 175.32 487.312 167.953 487.475 c 2
 138.516 487.475 l 2
 131.439 487.459 124.218 496.081 123.984 502.615 c 2
 123.984 531.537 l 2
 124.218 538.074 131.439 546.695 138.516 546.678 c 2xf8
-21.2812 -381.682 m 0
 -122.732 -381.682 -225 -303.497 -225 -173.885 c 0
 -225 -169.379 -219.93 -163.081 -214.734 -163.197 c 2
 -193.969 -163.197 l 2
 -188.979 -163.184 -183.867 -169.275 -183.703 -173.885 c 2
 -183.703 -180.025 l 1
 -182.578 -268.809 -110.335 -340.432 -21.2812 -340.432 c 0
 68.4756 -340.432 141.328 -267.765 141.328 -178.01 c 2
 141.328 353.459 l 2
 141.328 360.275 134.448 367.193 127.172 367.193 c 2
 85.0781 367.193 l 2
 80.5723 366.947 74.2764 372.266 74.3906 377.459 c 2
 74.3906 398.225 l 2
 74.3789 403.216 80.4697 408.326 85.0781 408.49 c 2
 172.359 408.49 l 2
 186.113 408.445 182.625 408.978 182.625 204.584 c 2
 182.625 -178.01 l 1xf4
 178.57 -310.79 74.9971 -381.682 -21.2812 -381.682 c 0
EndSplineSet
Validated: 524321
EndChar

StartChar: k
Encoding: 107 107 11
Width: 503
VWidth: -207
Flags: W
HStem: -1 21G<425 443.4> 1 19G<59.5 85.5 425 443.4> 250.182 82.8984<93 120.734> 772 20G<59.5 85.5>
VStem: 52 75.8496<266.312 321.25> 52 41<1 250.177 333.083 792>
LayerCount: 2
Fore
SplineSet
62 792 m 2x74
 83 792 l 2
 88 792 93 786 93 781 c 2
 93 355 l 1x74
 92.9453 353.079 92.917 351.303 92.917 349.664 c 0
 92.917 337.71 94.3955 333.08 97.6074 333.08 c 0
 101.979 333.08 109.561 341.65 121 352 c 2
 349 557 l 2
 353 560 361 560 364 556 c 2
 378 541 l 2
 382 537 381 529 377 526 c 2
 146 318 l 2
 133.9 307.55 127.85 299.52 127.85 292.08 c 0
 127.85 285.992 131.9 280.3 140 274 c 2
 454 28 l 2
 456.422 26.1836 457.744 22.5332 457.744 19.0479 c 0
 457.744 16.7783 457.184 14.5781 456 13 c 2
 449 5 l 2
 446.696 1.92773 445.8 -1 441 -1 c 2
 426 -1 l 2xb8
 424 -1 423 0 421 1 c 2
 419 3 l 1
 116 240 l 1
 108.761 246.813 103.335 250.182 99.5684 250.182 c 0
 94.4893 250.182 92.4258 244.058 93 232 c 1
 93 12 l 2
 93 7 88 1 83 1 c 2
 62 1 l 2
 57 1 52 7 52 12 c 2
 52 781 l 2
 52 786 57 792 62 792 c 2x74
EndSplineSet
Validated: 1
EndChar

StartChar: l
Encoding: 108 108 12
Width: 323
VWidth: -204
Flags: W
HStem: 0 41<213.143 277> 752 41<46 108.682>
VStem: 140 41<72.8085 720.999>
LayerCount: 2
Fore
SplineSet
266 0 m 2
 265 0 l 2
 195 0 140 58 140 128 c 2
 140 670 l 1
 138 714 103 752 58 752 c 0
 57 752 57 752 56 752 c 1
 52 752 46 757 46 762 c 2
 46 783 l 2
 46 788 51 793 56 793 c 2
 57 793 l 2
 127 793 181 736 181 666 c 2
 181 123 l 1
 183 79 219 41 264 41 c 0
 265 41 265 41 266 41 c 1
 270 41 277 36 277 31 c 2
 277 10 l 2
 277 5 271 0 266 0 c 2
EndSplineSet
Validated: 1
EndChar

StartChar: m
Encoding: 109 109 13
Width: 693
VWidth: -410
Flags: W
HStem: -2 21G<68.5 94.5 338.5 363.5 607.5 633.5> 363 41<140.399 282.383 411.144 551.167>
VStem: 60 41<-2 324.549 363 406> 330 41<-2 316.044> 600 41<-2 315.406>
CounterMasks: 1 38
LayerCount: 2
Fore
SplineSet
71 406 m 2
 92 406 l 2
 97 406 102 400 102 395 c 2
 101 363 l 1
 128 388 152 404 202 404 c 0
 287 404 329 366 344 344 c 0
 345 342 347 341 348 341 c 0
 361 341 383 402 471 404 c 0
 477 404 l 0
 575 404 640 354 641 244 c 1
 641 9 l 2
 641 3 636 -2 631 -2 c 2
 610 -2 l 2
 605 -2 600 4 600 9 c 2
 600 244 l 2
 600 333 538 363 471 363 c 0
 418 363 371 323 371 270 c 2
 371 9 l 2
 371 4 366 -2 361 -2 c 2
 341 -2 l 2
 336 -2 330 4 330 9 c 2
 330 244 l 2
 330 333 269 363 202 363 c 0
 149 363 101 323 101 270 c 2
 101 9 l 2
 101 4 97 -2 92 -2 c 2
 71 -2 l 2
 66 -2 60 4 60 9 c 2
 60 395 l 2
 60 400 66 406 71 406 c 2
EndSplineSet
Validated: 1
EndChar

StartChar: n
Encoding: 110 110 14
Width: 511
VWidth: -204
Flags: W
HStem: 0 21G<59.5 85.5 425.5 451.5> 365 41<177.452 331.535>
VStem: 52 41<0 280.164 326 407> 418 41<0 278.249>
LayerCount: 2
Fore
SplineSet
62 407 m 2
 83 407 l 2
 88 407 93 402 93 397 c 2
 93 326 l 1
 130 375 190 406 256 406 c 0
 368 406 458 316 459 204 c 1
 459 10 l 2
 459 5 454 0 449 0 c 2
 428 0 l 2
 423 0 418 5 418 10 c 2
 418 204 l 1
 417 293 345 365 256 365 c 0
 170 365 99 299 93 214 c 1
 93 10 l 2
 93 5 88 0 83 0 c 2
 62 0 l 2
 57 0 52 5 52 10 c 0
 52 397 l 0
 52 402 57 407 62 407 c 2
EndSplineSet
Validated: 1
EndChar

StartChar: o
Encoding: 111 111 15
Width: 487
VWidth: -207
Flags: W
HStem: 1 41<167.688 320.127> 367 41<165.384 320.127>
VStem: 40 41<128.688 281.127> 406 41<126.384 281.127>
LayerCount: 2
Fore
SplineSet
244 408 m 0
 357 408 447 318 447 205 c 0
 447 92 357 1 244 1 c 0
 131 1 40 92 40 205 c 0
 40 318 131 408 244 408 c 0
244 367 m 0
 154 367 81 295 81 205 c 0
 81 115 154 42 244 42 c 0
 334 42 406 115 406 205 c 0
 406 295 334 367 244 367 c 0
EndSplineSet
Validated: 1
EndChar

StartChar: p
Encoding: 112 112 16
Width: 499
VWidth: -205
Flags: W
HStem: 1 41<177.77 332.127> 367 41<177.77 332.127>
VStem: 53 41<-381 81 126.836 281.357 327 407> 418 41<127.873 282.616>
LayerCount: 2
Fore
SplineSet
63 -381 m 2
 58 -381 53 -375 53 -370 c 2
 53 194 l 2
 53 197 52 200 52 204 c 0
 52 208 53 212 53 215 c 2
 53 396 l 2
 53 401 58 407 63 407 c 2
 84 407 l 2
 89 407 94 401 94 396 c 2
 94 327 l 1
 131 376 190 408 256 408 c 0
 369 408 459 317 459 204 c 0
 459 91 369 1 256 1 c 0
 190 1 131 32 94 81 c 1
 94 -370 l 2
 94 -375 89 -381 84 -381 c 2
 63 -381 l 2
256 42 m 0
 346 42 418 114 418 204 c 0
 418 294 346 367 256 367 c 0
 170 367 100 300 94 215 c 1
 94 193 l 1
 100 108 170 42 256 42 c 0
EndSplineSet
Validated: 1
EndChar

StartChar: q
Encoding: 113 113 17
Width: 492
VWidth: -204
Flags: W
HStem: -383 40.9902<531.298 630.229> 1 41<167.688 322.23> 367 41<165.384 322.23>
VStem: 40 41<128.688 281.127> 406 41<-255.249 81 126.836 282.164 328 407>
LayerCount: 2
Fore
SplineSet
244 408 m 0
 310 408 369 377 406 328 c 1
 406 397 l 2
 406 402 411 407 416 407 c 2
 437 407 l 2
 442 407 447 402 447 397 c 2
 447 215 l 2
 447 212 448 209 448 205 c 0
 448 201 447 197 447 194 c 2
 447 -179 l 2
 447 -268.398 519.027 -342.01 608.197 -342.01 c 0
 608.798 -342.01 609.398 -342.007 610 -342 c 0
 622.961 -342 630.277 -353.021 630.277 -363.634 c 0
 630.277 -373.492 623.965 -383 610 -383 c 0
 498 -383 407 -293 406 -181 c 1
 406 81 l 1
 369 32 310 1 244 1 c 0
 131 1 40 92 40 205 c 0
 40 318 131 408 244 408 c 0
244 367 m 0
 154 367 81 295 81 205 c 0
 81 115 154 42 244 42 c 0
 330 42 400 108 406 193 c 1
 406 216 l 1
 400 301 330 367 244 367 c 0
EndSplineSet
Validated: 1
EndChar

StartChar: r
Encoding: 114 114 18
Width: 473
VWidth: -204
Flags: W
HStem: 367 41<177.77 334.215>
VStem: 53 41<2 282.164 328 410>
LayerCount: 2
Fore
SplineSet
256 408 m 0
 366.688 408 427.418 323.378 427.418 311.38 c 0
 427.418 300.363 413.352 290.312 401.797 290.312 c 0
 397.062 290.312 392.75 292 390 296 c 0
 363.191 336.213 314.812 367 256 367 c 0
 170 367 100 301 94 216 c 1
 94 13 l 2
 94 8 89 2 84 2 c 2
 63 2 l 2
 58 2 53 8 53 13 c 2
 53 194 l 2
 53 197 52 201 52 205 c 0
 52 209 53 212 53 215 c 2
 53 399 l 2
 53 404 58 410 63 410 c 2
 84 410 l 2
 89 410 94 404 94 399 c 2
 94 328 l 1
 131 377 190 408 256 408 c 0
EndSplineSet
Validated: 1
EndChar

StartChar: s
Encoding: 115 115 19
Width: 414
VWidth: -409
Flags: W
HStem: 0 41<122.068 292.219> 367 41<122.068 291.619>
VStem: 45 41<72.152 123.245 260.126 336.123> 328 41<71.4344 148.367 284.773 336.29>
LayerCount: 2
Fore
SplineSet
329 299 m 0
 329 338 271 367 207 367 c 0
 140 367 86 337 86 299 c 0
 86 248 146 240 253 214 c 2
 270 210 l 1
 336 191 369 149 369 109 c 0
 369 49 297 0 207 0 c 0
 117 0 45 49 45 109 c 0
 45 118.737 54.7188 123.26 64.6924 123.26 c 0
 75.2041 123.26 86 118.236 86 109 c 0
 86 71 140 41 207 41 c 0
 270 41 328 69 328 109 c 0
 328 157 273 168 181 189 c 1
 161 194 l 1
 122 205 45 230 45 299 c 0
 45 359 117 408 207 408 c 0
 297 408 369 359 369 299 c 0
 369 289.263 359.519 284.74 349.788 284.74 c 0
 339.532 284.74 329 289.764 329 299 c 0
EndSplineSet
Validated: 1
EndChar

StartChar: t
Encoding: 116 116 20
Width: 500
VWidth: -205
Flags: W
HStem: 2 40.9902<354.536 453.229> 411 41<46 229 270 454>
VStem: 229 41<128.89 411 452 598>
LayerCount: 2
Fore
SplineSet
239 598 m 2
 260 598 l 2
 265 598 270 592 270 587 c 2
 270 452 l 1
 443 452 l 2
 448 452 454 447 454 442 c 2
 454 421 l 2
 454 416 448 411 443 411 c 2
 270 411 l 1
 270 222 l 2
 270 217 271 212 271 206 c 0
 271 116.602 342.041 42.9902 431.197 42.9902 c 0
 431.798 42.9902 432.398 42.9932 433 43 c 0
 445.961 43 453.277 31.9795 453.277 21.3662 c 0
 453.277 11.5078 446.965 2 433 2 c 0
 321 2 230 91 229 203 c 1
 229 411 l 1
 57 411 l 2
 52 411 46 416 46 421 c 2
 46 442 l 2
 46 447 52 452 57 452 c 2
 229 452 l 1
 229 587 l 2
 229 592 234 598 239 598 c 2
EndSplineSet
Validated: 1
EndChar

StartChar: u
Encoding: 117 117 21
Width: 511
VWidth: -205
Flags: W
HStem: 2 41<179.465 333.548> 388 20G<59.5 85.5 425.5 451.5>
VStem: 52 41<129.751 408> 418 41<0 82 127.836 408>
LayerCount: 2
Fore
SplineSet
449 0 m 2
 428 0 l 2
 423 0 418 6 418 11 c 2
 418 82 l 1
 381 33 321 2 255 2 c 0
 143 2 53 92 52 204 c 1
 52 397 l 2
 52 402 57 408 62 408 c 2
 83 408 l 2
 88 408 93 402 93 397 c 2
 93 204 l 1
 94 115 166 43 255 43 c 0
 341 43 412 109 418 194 c 1
 418 397 l 2
 418 402 423 408 428 408 c 2
 449 408 l 2
 454 408 459 402 459 397 c 2
 459 11 l 2
 459 6 454 0 449 0 c 2
EndSplineSet
Validated: 1
EndChar

StartChar: v
Encoding: 118 118 22
Width: 548
VWidth: -410
Flags: W
HStem: -2 41<257.135 290.512> 390.573 20G<62.9546 71.6836 476.312 485.038>
VStem: 45 39.0195<401 410.149> 464.02 39.0205<401 409.72>
LayerCount: 2
Fore
SplineSet
47.0195 382 m 2
 45.623 384.667 45 387.318 45 389.87 c 0
 45 401.211 57.3086 410.573 68.6006 410.573 c 0
 74.7666 410.573 80.6289 407.782 84.0195 401 c 2
 263.02 47 l 2
 265.02 45 266.02 39 274.02 39 c 0
 281.02 39 283.02 44 285.02 47 c 2
 464.02 401 l 2
 467.401 407.455 473.239 410.131 479.384 410.131 c 0
 490.691 410.131 503.04 401.071 503.04 389.827 c 0
 503.04 387.303 502.417 384.667 501.02 382 c 2
 324.02 31 l 1
 316.02 11 297.02 -2 274.02 -2 c 0
 251.02 -2 233.02 12 225.02 31 c 1
 47.0195 382 l 2
EndSplineSet
Validated: 1
EndChar

StartChar: w
Encoding: 119 119 23
Width: 688
VWidth: -410
Flags: W
HStem: -1 41<150.613 291.504 395.496 537.621> 389 20G<602.5 627.5>
VStem: 52 41<98.2175 406> 323 41<71.0015 207> 594 42<94.8828 409>
LayerCount: 2
Fore
SplineSet
344 57 m 1
 308.882 5.91895 257.852 -1 246 -1 c 2
 208 -1 l 1
 121 4 52 76 52 164 c 0
 52 395 l 0
 52 400 57 406 62 406 c 2
 82 406 l 2
 87 406 93 400 93 395 c 2
 93 160 l 1
 95 94 149 40 216 40 c 2
 241 40 l 1
 286 42 323 80 323 126 c 2
 323 197 l 2
 323 202 328 207 333 207 c 2
 354 207 l 2
 359 207 364 202 364 197 c 2
 364 126 l 2
 364 80 401 42 446 40 c 1
 471 40 l 2
 539 40 595 96 595 164 c 0
 595 165 594 165 594 166 c 2
 594 399 l 2
 594 404 600 409 605 409 c 2
 625 409 l 2
 630 409 636 404 636 399 c 2
 636 163 l 2
 636 60.8174 545.575 0.799805 479 -1 c 1
 441 -1 l 1
 400 1 365 24 344 57 c 1
EndSplineSet
Validated: 1
EndChar

StartChar: x
Encoding: 120 120 24
Width: 498
VWidth: -410
Flags: W
HStem: 0 21G<66.9443 71.4443 426.944 430.944> 388 20G<66.9443 70.9443 424.944 430.944>
LayerCount: 2
Fore
SplineSet
425.444 408 m 2
 430.444 408 l 2
 431.444 408 432.444 407 433.444 407 c 0
 434.444 407 434.444 406 434.444 406 c 1
 449.444 391 l 2
 451.444 389 451.444 389 451.444 388 c 0
 451.444 387 452.444 385 452.444 383 c 0
 452.444 382 451.444 380 451.444 379 c 0
 451.444 378 450.444 379 450.444 378 c 2
 449.444 376 l 1
 283.444 209 l 2
 280.444 206 280.444 202 283.444 199 c 2
 449.444 32 l 1
 449.444 32 451.444 30 451.444 29 c 2
 451.444 25 l 2
 451.444 24 452.444 23 452.444 22 c 0
 452.444 21 451.444 19 450.444 18 c 1
 449.444 18 l 1
 434.444 2 l 1
 433.444 1 l 2
 432.444 1 431.444 0 430.444 0 c 0
 427.444 0 l 0
 426.444 0 424.444 1 423.444 1 c 0
 422.444 1 422.444 2 421.444 2 c 2
 254.444 170 l 2
 251.444 173 246.444 172 243.444 170 c 2
 78.4443 3 l 2
 77.4443 2 77.4443 2 76.4443 2 c 0
 74.4443 1 72.4443 0 70.4443 0 c 0
 67.4443 0 l 0
 66.4443 0 65.4443 0 64.4443 1 c 0
 63.4443 1 63.4443 3 63.4443 3 c 1
 48.4443 18 l 0
 47.4443 19 46.4443 20 46.4443 21 c 2
 46.4443 23 l 2
 46.4443 25 45.4443 27 46.4443 29 c 0
 46.4443 30 47.4443 31 48.4443 32 c 2
 214.444 199 l 2
 217.444 202 217.444 206 214.444 209 c 2
 48.4443 376 l 2
 47.4443 377 46.4443 378 46.4443 379 c 2
 46.4443 387 l 2
 46.4443 388 47.4443 388 47.4443 389 c 0
 47.4443 390 48.4443 391 48.4443 391 c 1
 64.4443 407 l 2
 65.4443 407 66.4443 408 67.4443 408 c 0
 70.4443 408 l 0
 71.4443 408 73.4443 407 74.4443 407 c 0
 75.4443 407 77.4443 406 78.4443 405 c 2
 243.444 239 l 2
 246.444 236 251.444 237 254.444 239 c 2
 420.444 405 l 1
 420.444 405 420.444 407 421.444 407 c 2
 423.444 407 l 1
 423.444 407 424.444 408 425.444 408 c 2
EndSplineSet
Validated: 1
EndChar

StartChar: y
Encoding: 121 121 25
Width: 512
VWidth: -203
Flags: W
HStem: -382 41<177.987 333.578> 1 41<179.804 334.23> 391 20G<59.5 85.5 426.5 451.5>
VStem: 52 41<-255.11 -164 130.061 411> 418 42<-256.454 82 127.643 408>
LayerCount: 2
Fore
SplineSet
62 411 m 2
 83 411 l 2
 88 411 93 405 93 400 c 2
 93 213 l 2
 93 210 94 208 94 205 c 0
 94 115 166 42 256 42 c 0
 342 42 412 109 418 194 c 1
 418 397 l 2
 418 402 424 408 429 408 c 2
 449 408 l 2
 454 408 460 402 460 397 c 2
 460 -179 l 1
 459 -185 l 1
 456 -295 366 -382 256 -382 c 0
 144 -382 53 -293 52 -181 c 1
 52 -175 l 2
 52 -170 57 -164 62 -164 c 2
 83 -164 l 2
 88 -164 93 -170 93 -175 c 2
 93 -181 l 1
 94 -270 167 -341 256 -341 c 0
 346 -341 418 -269 418 -179 c 2
 418 82 l 1
 381 33 322 1 256 1 c 0
 143 1 52 92 52 205 c 2
 52 400 l 2
 52 405 57 411 62 411 c 2
EndSplineSet
Validated: 1
EndChar

StartChar: z
Encoding: 122 122 26
Width: 499
VWidth: -204
Flags: W
HStem: 2 41<116.862 453> 189 41<142 199.045 242.062 264.875 306.955 353> 368 41<46 379.137>
LayerCount: 2
Fore
SplineSet
443 2 m 2
 56 2 l 2
 51 2 46 7 46 12 c 2
 46 33 l 2
 46 36 48 39 50 41 c 2
 199 185 l 2
 200 186 199 189 197 189 c 2
 153 189 l 2
 148 189 142 194 142 199 c 2
 142 220 l 2
 142 225 148 230 153 230 c 2
 239 230 l 2
 245.246 230 249.255 234.255 254 239 c 2
 370 351 l 1
 379 359 l 2
 382 362 380 368 375 368 c 2
 56 368 l 2
 51 368 46 373 46 378 c 2
 46 399 l 2
 46 404 51 409 56 409 c 2
 443 409 l 2
 448 409 453 404 453 399 c 2
 453 378 l 2
 453 376 452 373 450 371 c 2
 307 233 l 2
 306 232 307 230 309 230 c 2
 343 230 l 2
 348 230 353 225 353 220 c 2
 353 199 l 2
 353 194 348 189 343 189 c 2
 267 189 l 2
 259.8 189 257.752 185.752 255 183 c 2
 117 49 l 2
 114 46 115 43 118 43 c 2
 443 43 l 2
 448 43 453 38 453 33 c 2
 453 12 l 2
 453 7 448 2 443 2 c 2
EndSplineSet
Validated: 1
EndChar

StartChar: A
Encoding: 65 65 28
Width: 687
VWidth: -205
Flags: W
HStem: 0 21G<60.5 85.5 601.5 627.5> 366 41<94 594> 750 41<265.072 423.182>
VStem: 52 41<0 366 407 523.135> 594 41<0 366 407 532.631>
LayerCount: 2
Fore
SplineSet
344 791 m 0
 505 791 635 615 635 397 c 2
 635 10 l 2
 635 5 630 0 625 0 c 2
 604 0 l 2
 599 0 594 5 594 10 c 2
 594 366 l 1
 93 366 l 1
 93 10 l 2
 93 5 88 0 83 0 c 2
 63 0 l 2
 58 0 52 5 52 10 c 0
 52 397 l 1
 60 614 183 791 344 791 c 0
344 750 m 0
 209 750 98 597 94 407 c 1
 594 407 l 1
 590 597 479 750 344 750 c 0
EndSplineSet
Validated: 1
EndChar

StartChar: B
Encoding: 66 66 29
Width: 677
VWidth: -206
Flags: W
HStem: 1 41<122.433 512.547> 366 41<93.2324 430.062> 751 41<124.68 364 365 438.559>
VStem: 52 41<73.2662 365.991 407.009 719.222> 524 41<518.68 666.938> 596 41<125.331 282.008>
LayerCount: 2
Fore
SplineSet
175 792 m 1
 175 792 184 793 196 793 c 0
 220 793 256 792 256 792 c 1
 364 792 l 1
 365 793 l 1
 476 791 565 700 565 589 c 0
 565 535 526 492 509 448 c 1
 480 419 l 2
 476 415 478 404 484 402 c 0
 532.761 385.746 563.975 365.83 588 337 c 0
 619 301 637 256 637 205 c 0
 637 92 546 1 433 1 c 2
 175 1 l 1
 108 3 54 56 52 123 c 1
 52 665 l 2
 52 734 107 790 175 792 c 1
180 751 m 2
 132 751 93 713 93 665 c 2
 93 428 l 2
 93 419 102 407 114 407 c 2
 391 407 l 2
 407 407 418 415 427 424 c 2
 476 474 l 2
 505 503 524 544 524 589 c 0
 524 679 451 751 361 751 c 2
 180 751 l 2
114 366 m 2
 102 366 93 353 93 343 c 2
 93 124 l 1
 94.9746 79.5801 131.052 41.9805 174.303 41.9805 c 0
 174.867 41.9805 175.433 41.9873 176 42 c 1
 440 42 l 0
 527 42 596 118 596 205 c 0
 596 289 531 358 449 366 c 1
 114 366 l 2
EndSplineSet
Validated: 1
EndChar

StartChar: C
Encoding: 67 67 30
Width: 590
VWidth: -208
Flags: W
HStem: 1 41<251.947 415.203> 751 41<251.947 415.049>
VStem: 40 41<260.195 533.666>
LayerCount: 2
Fore
SplineSet
509 647 m 0
 463 711 401 751 332 751 c 0
 194 751 81 592 81 397 c 0
 81 202 194 42 332 42 c 0
 401 42 464 82 509 146 c 0
 514.188 153.205 520.538 156.257 526.448 156.257 c 0
 536.282 156.257 544.895 147.806 544.895 135.978 c 0
 544.895 130.251 542.876 123.733 538 117 c 0
 486 45 412 1 332 1 c 0
 171 1 40 179 40 397 c 0
 40 615 171 792 332 792 c 0
 412 792 486 748 538 676 c 0
 542.418 670.035 544.25 664.218 544.25 659.01 c 0
 544.25 647.108 534.685 638.392 524.559 638.392 c 0
 519.057 638.392 513.389 640.966 509 647 c 0
EndSplineSet
Validated: 1
EndChar

StartChar: D
Encoding: 68 68 31
Width: 576
VWidth: -205
Flags: W
HStem: 0 41<124.73 324.262> 749 41<124.984 324.262>
VStem: 52 41<71.4277 716.274> 495 41<258.647 530.216>
LayerCount: 2
Fore
SplineSet
172 790 m 1
 255 790 l 1
 411 782 536 608 536 395 c 0
 536 178 407 2 247 0 c 1
 173 0 l 1
 109 10 54 56 52 122 c 1
 53 663 l 1
 52 663 l 1
 52 731 105 785 172 790 c 1
180 749 m 2
 132 749 93 711 93 663 c 2
 93 122 l 1
 95 78 131 43 175 41 c 1
 244 41 l 2
 382 41 495 200 495 395 c 0
 495 590 382 749 244 749 c 2
 180 749 l 2
EndSplineSet
Validated: 1
EndChar

StartChar: E
Encoding: 69 69 32
Width: 505
VWidth: -405
Flags: W
HStem: 2 41<124.778 459> 368 41<93 333> 752 41<124.087 458>
VStem: 52 41<74.0728 367.903 409 720.191>
LayerCount: 2
Fore
SplineSet
179 793 m 2
 448 793 l 2
 453 793 458 788 458 783 c 2
 458 762 l 2
 458 757 453 752 448 752 c 2
 179 752 l 2
 131 752 93 713 93 665 c 2
 93 422 l 2
 93 417 100 409 107 409 c 2
 323 409 l 2
 328 409 333 404 333 399 c 2
 333 378 l 2
 333 373 328 368 323 368 c 2
 107 368 l 1
 100 366 93 360 93 353 c 2
 93 125 l 1
 95 79 133 43 180 43 c 2
 448 43 l 2
 453 43 459 38 459 33 c 2
 459 12 l 2
 459 7 453 2 448 2 c 2
 179 2 l 2
 110 2 54 56 52 124 c 1
 52 665 l 2
 52 735 109 793 179 793 c 2
EndSplineSet
Validated: 1
EndChar

StartChar: F
Encoding: 70 70 33
Width: 505
VWidth: -205
Flags: W
HStem: 0 21G<60.5 85.5> 366 41<93.0058 334> 750 41<124.809 180 180.048 459>
VStem: 52 41<0 365.903 407 718.913>
LayerCount: 2
Fore
SplineSet
184 791 m 2
 448 791 l 2
 453 791 459 786 459 781 c 2
 459 760 l 2
 459 755 453 750 448 750 c 2
 184 750 l 2
 183 750 181 750 180 751 c 1
 180 750 l 1
 132 750 93 712 93 664 c 2
 93 421 l 2
 93 416 101 407 108 407 c 2
 323 407 l 2
 328 407 334 402 334 397 c 2
 334 377 l 2
 334 372 328 366 323 366 c 2
 108 366 l 1
 101 364 93 358 93 351 c 2
 93 10 l 2
 93 5 88 0 83 0 c 2
 63 0 l 2
 58 0 52 5 52 10 c 2
 52 661 l 2
 52 662 53 663 53 664 c 1
 52 664 l 1
 52 734 110 791 180 791 c 1
 180 790 l 1
 181 791 183 791 184 791 c 2
EndSplineSet
Validated: 1
EndChar

StartChar: G
Encoding: 71 71 34
Width: 646
VWidth: -207
Flags: W
HStem: 0 41<251.947 412.337> 366 41<215 533.016> 750 41<251.947 414.676>
VStem: 40 41<259.195 532.666> 565 41<243 334.998>
LayerCount: 2
Fore
SplineSet
332 41 m 0
 424 41 516.691 111.618 562 258 c 0
 562 259 563 262 563 263 c 0
 564 269 565 274 565 280 c 0
 565 326 530 364 484 366 c 1
 225 366 l 2
 220 366 215 372 215 377 c 2
 215 397 l 2
 215 402 220 407 225 407 c 2
 486 407 l 1
 553 404 606 348 606 280 c 0
 606 271 606 263 604 255 c 0
 601 243 l 1
 600 242 l 1
 548.172 79.6045 439.2 0 332 0 c 0
 171 0 40 178 40 396 c 0
 40 614 171 791 332 791 c 0
 412 791 483 745 538 675 c 0
 542.843 668.837 544.826 663.062 544.826 658.004 c 0
 544.826 646.364 534.315 638.528 523.957 638.528 c 0
 518.369 638.528 512.826 640.808 509 646 c 0
 463 710 401 750 332 750 c 0
 194 750 81 591 81 396 c 0
 81 201 194 41 332 41 c 0
EndSplineSet
Validated: 1
EndChar

StartChar: H
Encoding: 72 72 35
Width: 681
VWidth: -207
Flags: W
HStem: 0 21G<59.5 85.5 596.5 621.5> 366 41<93.0058 587.994> 772 20G<59.5 85.5 596.5 621.5>
VStem: 52 41<0 366 407 792> 588 41<0 366 407 792>
LayerCount: 2
Fore
SplineSet
62 792 m 2
 83 792 l 2
 88 792 93 785 93 781 c 2
 93 424 l 2
 93 417 99 407 109 407 c 2
 573 407 l 2
 580 407 588 415 588 424 c 2
 588 781 l 2
 588 786 594 792 599 792 c 2
 619 792 l 2
 624 792 629 784 629 781 c 2
 629 10 l 2
 629 5 624 0 619 0 c 2
 599 0 l 2
 594 0 588 5 588 10 c 2
 588 351 l 2
 588 358 582 366 573 366 c 2
 109 366 l 2
 101 366 93 358 93 351 c 2
 93 10 l 2
 93 5 88 0 83 0 c 2
 62 0 l 2
 57 0 52 5 52 10 c 2
 52 781 l 2
 52 786 57 792 62 792 c 2
EndSplineSet
Validated: 1
EndChar

StartChar: I
Encoding: 73 73 36
Width: 323
VWidth: -205
Flags: W
HStem: 0 41<46 141 182 277> 750 41<46 141 182 277>
VStem: 141 41<41 750>
LayerCount: 2
Fore
SplineSet
56 791 m 2
 266 791 l 2
 271 791 277 786 277 781 c 2
 277 760 l 2
 277 755 271 750 266 750 c 2
 182 750 l 1
 182 41 l 1
 266 41 l 2
 271 41 277 36 277 31 c 2
 277 10 l 2
 277 5 271 0 266 0 c 2
 56 0 l 2
 51 0 46 5 46 10 c 2
 46 31 l 2
 46 36 51 41 56 41 c 2
 141 41 l 1
 141 750 l 1
 56 750 l 2
 51 750 46 755 46 760 c 2
 46 781 l 2
 46 786 51 791 56 791 c 2
EndSplineSet
Validated: 1
EndChar

StartChar: J
Encoding: 74 74 37
Width: 589
VWidth: -206
Flags: W
HStem: 1 41<165.987 321.772> 751 41<238 407 448 543>
VStem: 40 41<128.751 220> 407 41<127.314 751>
LayerCount: 2
Fore
SplineSet
249 792 m 2
 532 792 l 2
 537 792 543 787 543 782 c 2
 543 761 l 2
 543 756 537 751 532 751 c 2
 448 751 l 1
 448 199 l 1
 445 89 354 1 244 1 c 0
 132 1 41 91 40 203 c 1
 40 209 l 2
 40 214 46 220 51 220 c 2
 71 220 l 2
 76 220 81 214 81 209 c 2
 81 203 l 1
 82 114 155 42 244 42 c 0
 334 42 407 115 407 205 c 2
 407 751 l 1
 249 751 l 2
 244 751 238 756 238 761 c 2
 238 782 l 2
 238 787 244 792 249 792 c 2
EndSplineSet
Validated: 1
EndChar

StartChar: K
Encoding: 75 75 38
Width: 608
VWidth: -206
Flags: W
HStem: 0 20.9355G<59.5 85.5 535.243 542.224> 367 41<93.0051 166.688> 773 19G<59.5 85 536.5 544.506>
VStem: 52 41<0 367 408 792>
LayerCount: 2
Fore
SplineSet
538 793 m 0
 551.013 793 562.019 779.354 562.019 768.9 c 0
 562.019 765.858 561.086 763.086 559 761 c 2
 423 626 l 1
 216 418 l 1
 205 408 l 2
 194 397 195.1 395.9 205 386 c 2
 217 375 l 1
 559 32 l 2
 561.131 29.8691 562.053 27.2861 562.053 24.5205 c 0
 562.053 13.6367 547.765 -0.0644531 536.683 -0.0644531 c 0
 533.803 -0.0644531 531.14 0.860352 529 3 c 2
 394 139 l 1
 173 359 l 2
 169 363 162 367 156 367 c 2
 108 367 l 2
 100 367 93 359 93 352 c 2
 93 10 l 2
 93 5 88 0 83 0 c 2
 62 0 l 2
 57 0 52 5 52 10 c 2
 52 781 l 2
 52 786 57 792 62 792 c 2
 83 792 l 2
 87 792 91 785 93 781 c 1
 93 425 l 2
 93 418 98 408 108 408 c 2
 135 408 l 2
 142 408 151 412 155 416 c 2
 529 790 l 2
 531 792 535 793 538 793 c 0
EndSplineSet
Validated: 1
EndChar

StartChar: L
Encoding: 76 76 39
Width: 504
VWidth: -206
Flags: W
HStem: 1 41<124.097 458> 772 20G<60.5 85.5>
VStem: 52 41<73.5625 792>
LayerCount: 2
Fore
SplineSet
63 792 m 2
 83 792 l 2
 88 792 93 782 93 782 c 1
 93 122 l 1
 96 78 133 43 177 42 c 1
 447 42 l 2
 452 42 458 37 458 32 c 2
 458 11 l 2
 458 6 449 3 447 1 c 0
 446 0.333008 433.777 0.111328 415.963 0.111328 c 0
 380.333 0.111328 322.333 1 287 1 c 2
 180 1 l 2
 113 1 56 54 52 120 c 1
 52 782 l 2
 52 787 58 792 63 792 c 2
EndSplineSet
Validated: 1
EndChar

StartChar: M
Encoding: 77 77 40
Width: 685
VWidth: -207
Flags: W
HStem: 0 21G<59.5 85.5 599.5 625.5> 351 41<288.359 396.885> 741.604 50.3965<558.6 610>
VStem: 52 41<0 742.045> 592 41<0 741.603>
LayerCount: 2
Fore
SplineSet
343 392 m 0
 396.731 392 423 439.95 423 449 c 1
 502 702 l 1
 512.098 742.391 558.371 792 623 792 c 0
 628 792 633 785 633 781 c 2
 633 10 l 2
 633 5 628 0 623 0 c 2
 602 0 l 2
 597 0 592 5 592 10 c 2
 592 739 l 2
 592 740.749 590.852 741.604 588.881 741.604 c 0
 579.782 741.604 553.15 723.399 541 691 c 1
 463 436 l 2
 453.603 407.808 415 351 343 351 c 0
 275.221 351 230.315 400.737 219 446 c 1
 144 691 l 1
 130.611 726.704 107.438 737.781 99 742 c 0
 97 743 93 742 93 739 c 2
 93 10 l 2
 93 5 88 0 83 0 c 2
 62 0 l 2
 57 0 52 5 52 10 c 2
 52 781 l 2
 52 785 56 792 61 792 c 2
 62 792 l 2
 123.17 792 171.733 747.068 183 702 c 1
 259 456 l 1
 263 445 l 2
 270.348 426.631 295 392 343 392 c 0
EndSplineSet
Validated: 1
EndChar

StartChar: N
Encoding: 78 78 41
Width: 513
VWidth: -206
Flags: W
HStem: 1 21G<59.5 85.5 422.5 453.5> 773 20G<59.5 98.6001 427.5 453.5>
VStem: 52 41<1 743.045> 420 41<52.8623 793>
LayerCount: 2
Fore
SplineSet
62 793 m 0
 135.2 793 176.786 731.854 184 703 c 1
 369 102 l 1
 381.551 68.5312 400.504 56.748 408 53 c 0
 413 50 420 51 420 57 c 2
 420 782 l 2
 420 787 425 793 430 793 c 2
 451 793 l 2
 456 793 461 787 461 782 c 2
 461 11 l 2
 461 7 456 1 451 1 c 0
 394 1 345 39 329 91 c 2
 144 692 l 1
 132.729 722.056 121.487 731.757 99 743 c 0
 97 744 93 743 93 740 c 2
 93 11 l 2
 93 6 88 1 83 1 c 2
 62 1 l 2
 57 1 52 6 52 11 c 2
 52 782 l 2
 52 786 57 793 62 793 c 0
EndSplineSet
Validated: 1
EndChar

StartChar: O
Encoding: 79 79 42
Width: 663
VWidth: -206
Flags: W
HStem: 1 41<251.947 411.96> 751 41<251.947 411.96>
VStem: 40 41<260.195 533.666> 582 41<260.195 533.666>
LayerCount: 2
Fore
SplineSet
332 792 m 0
 493 792 623 615 623 397 c 0
 623 179 493 1 332 1 c 0
 171 1 40 179 40 397 c 0
 40 615 171 792 332 792 c 0
332 751 m 0
 194 751 81 592 81 397 c 0
 81 202 194 42 332 42 c 0
 470 42 582 202 582 397 c 0
 582 592 470 751 332 751 c 0
EndSplineSet
Validated: 1
EndChar

StartChar: P
Encoding: 80 80 43
Width: 499
VWidth: -205
Flags: W
HStem: 0 21G<59.5 85.5> 366 41<93.0044 329.401> 750 41<124.747 332.686>
VStem: 52 41<0 366 407 718.222> 418 41<495.473 665.01>
LayerCount: 2
Fore
SplineSet
176 791 m 1
 260 791 l 1
 370 789 459 699 459 588 c 2
 459 570 l 1
 458 458 367 366 255 366 c 2
 105 366 l 2
 99 366 93 360 93 354 c 2
 93 10 l 2
 93 5 88 0 83 0 c 2
 62 0 l 2
 57 0 52 5 52 10 c 2
 52 664 l 2
 52 733 107 789 176 791 c 1
178 750 m 2
 131 750 93 711 93 664 c 2
 93 420 l 2
 93 413 99 407 105 407 c 2
 255 407 l 2
 345 407 418 481 418 570 c 2
 418 588 l 2
 418 677 345 750 255 750 c 2
 178 750 l 2
EndSplineSet
Validated: 1
EndChar

StartChar: Q
Encoding: 81 81 44
Width: 667
VWidth: -210
Flags: W
HStem: -1 41<251.947 415.225 550.777 623.872> 210 41<370.005 445.143> 749 41<251.947 411.96>
VStem: 40 41<258.195 531.666> 477 47.6533<88.143 126.621> 477 37<155.428 177.308> 582 41<258.383 531.666>
LayerCount: 2
Fore
SplineSet
604 -1 m 0xfa
 523.145 -1 498.469 61.8467 493.524 61.8467 c 0
 482.931 61.8467 425.418 -1 332 -1 c 0
 171 -1 40 177 40 395 c 0
 40 613 171 790 332 790 c 0
 493 790 623 613 623 395 c 0
 623 197.867 524.653 104.541 524.653 96.2832 c 0
 524.653 85.0264 551.468 40 604 40 c 0
 617.123 40 623.877 29.5557 623.877 19.21 c 0
 623.877 9.05762 617.373 -1 604 -1 c 0xfa
391 251 m 0
 474.154 251 513 174.312 513 158 c 0
 513 157 514 157 514 156 c 0xf6
 514 155.617 514.12 155.428 514.35 155.428 c 0
 519.588 155.428 582 253.999 582 395 c 0
 582 590 470 749 332 749 c 0
 194 749 81 590 81 395 c 0
 81 200 194 40 332 40 c 0
 353.117 40 412.2 42.2002 474 104 c 0
 476 106 477 111 477 115 c 0
 477 124 l 0
 477 172 439 210 391 210 c 0
 377 210 370 220.25 370 230.5 c 0
 370 240.75 377 251 391 251 c 0
EndSplineSet
Validated: 1
EndChar

StartChar: R
Encoding: 82 82 45
Width: 505
VWidth: -206
Flags: W
HStem: 1 21G<59.5 85.5> 368 41<93.0044 107.999 149 332.454> 751 41.4443<123.909 332.454>
VStem: 52 41<1 367.994 409 718.118> 417 41<496.612 663.585>
LayerCount: 2
Fore
SplineSet
52 665 m 2
 52 743.707 119.156 792.444 180.074 792.444 c 0
 184.223 792.444 191.333 792 202 792 c 2
 260 792 l 1
 370 790 458 701 458 590 c 2
 458 571 l 1
 457 459 367 368 255 368 c 2
 149 368 l 1
 152.475 334.987 170.112 318.888 174 315 c 2
 456 33 l 2
 458.115 30.8848 459.03 28.2949 459.03 25.5146 c 0
 459.03 14.708 445.214 1.01172 434.425 1.01172 c 0
 431.655 1.01172 429.086 1.91406 427 4 c 2
 145 286 l 1
 112.632 321.604 114.511 337.957 110 356 c 0
 110 358 109 360 109 362 c 0
 109 363 108 364 108 365 c 0
 108 367 107 368 105 368 c 0
 98.5801 368 93 360.17 93 355 c 2
 93 11 l 2
 93 6 88 1 83 1 c 2
 62 1 l 2
 57 1 52 6 52 11 c 2
 52 665 l 2
178 751 m 2
 131 751 93 712 93 665 c 2
 93 421 l 2
 93 414 99 409 105 409 c 2
 255 409 l 2
 345 409 417 482 417 571 c 2
 417 589 l 2
 417 678 345 751 255 751 c 2
 178 751 l 2
EndSplineSet
Validated: 1
EndChar

StartChar: S
Encoding: 83 83 46
Width: 554
VWidth: -206
Flags: W
HStem: 1 41<175.061 407.9> 752 41<148.422 371.454>
VStem: 40 38<544.974 681.018> 46 41<130.061 225.229> 456 41<570.255 666.016> 476 38<110.383 245.622>
LayerCount: 2
Fore
SplineSet
335 42 m 0xd4
 413 42 476 103 476 179 c 0xd4
 476 226.222 450.214 266.848 415 292 c 1
 125 461 l 2
 75.6172 489.807 40 548.858 40 614 c 0
 40 713 119 793 218 793 c 2
 305 793 l 1
 413 787 497 698 497 589 c 0
 497 576.5 486.75 570.25 476.5 570.25 c 0
 466.25 570.25 456 576.5 456 589 c 0
 456 679 384 752 294 752 c 2
 252 752 l 1
 218 751 l 1
 140 751 78 690 78 614 c 0xe8
 78 546.2 122.418 512.13 138 501 c 1
 412 342 l 1
 434 328 l 2
 449.306 318.816 514 268.8 514 180 c 0
 514 81 433 0 334 0 c 1
 334 1 l 1
 250 1 l 2
 137 1 46 92 46 205 c 0
 46 218.965 55.5078 225.277 65.3662 225.277 c 0
 75.9795 225.277 87 217.961 87 205 c 0
 87 115 160 42 250 42 c 0
 335 42 l 0xd4
EndSplineSet
Validated: 1
EndChar

StartChar: T
Encoding: 84 84 47
Width: 499
VWidth: -204
Flags: W
HStem: 754 41<46 228.743 270.257 453>
VStem: 229 41<2 753.916>
LayerCount: 2
Fore
SplineSet
56 795 m 2
 442 795 l 2
 447 795 453 790 453 785 c 2
 453 764 l 2
 453 759 447 754 442 754 c 2
 292 754 l 2
 280 754 270 741 270 731 c 2
 270 13 l 2
 270 8 265 2 260 2 c 2
 239 2 l 2
 234 2 229 8 229 13 c 2
 229 731 l 2
 229 741 219 754 207 754 c 2
 56 754 l 2
 51 754 46 759 46 764 c 2
 46 785 l 2
 46 790 51 795 56 795 c 2
EndSplineSet
Validated: 1
EndChar

StartChar: U
Encoding: 85 85 48
Width: 687
VWidth: -205
Flags: W
HStem: 0 41<264.804 422.889> 771 20G<60.5 85.5 602.5 627.5>
VStem: 52 41<264.966 791> 594 41<267.865 791>
LayerCount: 2
Fore
SplineSet
594 383 m 1
 594 781 l 2
 594 786 600 791 605 791 c 2
 625 791 l 2
 630 791 635 786 635 781 c 0
 635 394 l 1
 627 177 505 0 344 0 c 0
 183 0 52 176 52 394 c 2
 52 781 l 2
 52 786 58 791 63 791 c 2
 83 791 l 2
 88 791 93 786 93 781 c 2
 93 425 l 1
 94 383 l 2
 98.5234 193.012 209 41 344 41 c 0
 479 41 590 193 594 383 c 1
EndSplineSet
Validated: 1
EndChar

StartChar: V
Encoding: 86 86 49
Width: 681
VWidth: -405
Flags: W
HStem: -3 41<293.113 377.85> 774 20G<608.629 617.266>
VStem: 595.629 39.6816<757.138 793.727>
LayerCount: 2
Fore
SplineSet
612.629 794 m 0
 621.903 794 635.311 786.288 635.311 773.922 c 0
 635.311 772.354 635.096 770.711 634.629 769 c 2
 430.629 72 l 1
 420.629 29 381.629 -3 335.629 -3 c 0
 292.629 -3 253.629 25 242.629 63 c 2
 46.6289 770 l 2
 46.2002 771.714 46 773.357 46 774.924 c 0
 46 786.662 57.2529 794.026 67.8945 794.026 c 0
 75.6885 794.026 83.1533 790.076 85.6289 781 c 2
 278.629 86 l 1
 284.924 54.5254 312.829 38 335.629 38 c 0
 383.68 38 392.625 88.9893 392.629 89 c 2
 595.629 781 l 2
 598.629 790 604.629 794 612.629 794 c 0
EndSplineSet
Validated: 1
EndChar

StartChar: W
Encoding: 87 87 50
Width: 688
VWidth: -205
Flags: W
HStem: 0 41<151.318 291.504 395.496 536.141> 389 20G<330.5 356.5>
VStem: 52 41<99.2175 795> 323 41<72.0015 409> 595 41<99.0059 795>
LayerCount: 2
Fore
SplineSet
344 58 m 1
 311 7 257 0 246 0 c 2
 208 0 l 1
 121 5 52 77 52 165 c 2
 52 784 l 2
 52 789 57 795 62 795 c 2
 83 795 l 2
 88 795 93 789 93 784 c 2
 93 161 l 1
 95 95 150 41 217 41 c 2
 241 41 l 1
 286 43 323 81 323 127 c 2
 323 399 l 2
 323 404 328 409 333 409 c 2
 354 409 l 2
 359 409 364 404 364 399 c 2
 364 127 l 2
 364 81 401 42 446 41 c 1
 471 41 l 2
 539 41 595 97 595 165 c 2
 595 784 l 2
 595 789 600 795 605 795 c 2
 626 795 l 2
 631 795 636 789 636 784 c 2
 636 166 l 1
 634 49 534 2 479 0 c 0
 443 0 l 0
 431 0 377 6 344 58 c 1
EndSplineSet
Validated: 1
EndChar

StartChar: X
Encoding: 88 88 51
Width: 516
VWidth: -615
Flags: W
HStem: -1.13086 20.8008G<64.0024 72.7285 443.6 452.342> 771 20G<64.1016 73.0195 442.413 451.05>
VStem: 46 39.0195<-0.71962 8 782 790.48> 228.543 58.9541<343.203 446.797> 431.02 39.0205<-0.930353 8 782 790.509>
LayerCount: 2
Fore
SplineSet
70.0195 791 m 0
 76.0195 791 83.0195 789 86.0195 782 c 2
 248.02 462 l 2
 251.02 456 266.02 456 269.02 462 c 2
 430.02 782 l 2
 433.553 788.478 439.378 791.173 445.447 791.173 c 0
 456.653 791.173 468.694 781.985 468.694 770.439 c 0
 468.694 768.041 468.175 765.541 467.02 763 c 2
 306.02 444 l 1
 293.02 420 l 2
 289.27 412.967 287.497 404.835 287.497 396.634 c 0
 287.497 387.345 289.771 377.967 294.02 370 c 2
 468.02 27 l 2
 469.417 24.2051 470.04 21.4756 470.04 18.8818 c 0
 470.04 7.45312 457.947 -1.33008 446.737 -1.33008 c 0
 440.463 -1.33008 434.466 1.42188 431.02 8 c 2
 281.02 305 l 1
 269.02 327 l 2
 266.02 334 250.02 334 247.02 327 c 2
 85.0195 8 l 2
 81.6387 1.54492 75.8008 -1.13086 69.6562 -1.13086 c 0
 58.3486 -1.13086 46 7.92871 46 19.1729 c 0
 46 21.6973 46.623 24.333 48.0195 27 c 2
 222.02 370 l 2
 226.269 377.967 228.543 387.345 228.543 396.634 c 0
 228.543 404.835 226.771 412.967 223.02 420 c 2
 49.0195 763 l 2
 47.8281 765.622 47.2871 768.219 47.2871 770.711 c 0
 47.2871 781.899 58.1836 791 70.0195 791 c 0
EndSplineSet
Validated: 1
EndChar

StartChar: Y
Encoding: 89 89 52
Width: 683
VWidth: -1020
Flags: W
VStem: 50 41.7188<577.568 791.169> 321.031 41.2969<-0.908284 323.692> 591.5 41.7188<577.569 791.169>
LayerCount: 2
Fore
SplineSet
591.5 703.475 m 0
 591.82 717.221 591.852 730.975 591.922 744.725 c 0
 591.994 759.03 591.922 776.913 591.922 780.489 c 2
 591.922 785.077 594.959 791.186 602.188 791.177 c 1
 622.953 791.177 l 1
 628.147 791.293 633.467 784.995 633.219 780.489 c 1
 633.219 714.537 l 1
 632.918 515.545 523.656 352.882 382.812 323.834 c 0
 370.975 321.393 362.328 310.744 362.328 300.818 c 1
 362.328 9.77148 l 1
 362.574 5.26562 357.257 -1.03125 352.062 -0.916016 c 1
 331.297 -0.916016 l 1
 326.307 -0.928711 321.195 5.16309 321.031 9.77148 c 1
 321.031 300.818 l 1
 321.031 311.06 310.757 321.674 299.75 323.928 c 1
 299.938 323.928 l 1
 158.955 351.338 50.1875 515.678 50 714.35 c 0
 50 714.694 50 715.037 50 715.381 c 1
 50 780.489 l 1
 50.0156 785.1 55.2744 791.189 60.2656 791.177 c 1
 81.0312 791.177 l 1
 86.2266 791.293 91.3232 784.995 91.2969 780.489 c 1
 91.2969 744.725 l 1
 91.7188 703.475 l 1
 96.1523 513.481 206.325 361.146 341.609 361.146 c 0
 476.891 361.146 587.066 513.483 591.5 703.475 c 0
EndSplineSet
Validated: 524321
EndChar

StartChar: Z
Encoding: 90 90 53
Width: 523
VWidth: -405
Flags: W
HStem: -2 42<86.0155 473> 388 41<154.004 235 307 371.982> 747 41<56.4729 437.561>
VStem: 44 41<40.5195 58> 438 41<728 746.783>
LayerCount: 2
Fore
SplineSet
69 788 m 2
 427 788 l 1
 456 786 479 764 479 735 c 0
 479 725 477 716 472 708 c 1
 472 707 l 1
 470 705 l 1
 307 429 l 1
 354 429 l 2
 366 429 372 419 372 409 c 0
 372 399 366 388 354 388 c 2
 283 388 l 1
 88 58 l 2
 88 57 86 57 86 56 c 0
 85 55 85 53 85 51 c 0
 85 44 91 40 98 40 c 2
 462 40 l 2
 467 40 473 34 473 29 c 2
 473 8 l 2
 473 3 467 -2 462 -2 c 2
 95 -2 l 1
 67 1 44 22 44 51 c 0
 44 62 47 72 53 81 c 2
 235 388 l 1
 172 388 l 2
 160 388 154 398.25 154 408.5 c 0
 154 418.75 160 429 172 429 c 2
 259 429 l 1
 433 724 l 1
 436 728 l 2
 436 729 437 729 437 730 c 0
 438 731 438 733 438 735 c 0
 438 742 433 747 426 747 c 2
 69 747 l 2
 60.7344 747 56.4697 757.46 56.4697 767.813 c 0
 56.4697 777.958 60.5635 788 69 788 c 2
EndSplineSet
Validated: 1
EndChar

StartChar: one
Encoding: 49 49 54
Width: 329
VWidth: -205
Flags: W
HStem: 3 41<51 146 187 283>
VStem: 40 41<614.469 724.683> 146 41<44 753>
LayerCount: 2
Fore
SplineSet
92.291 571.532 m 0
 77.2637 571.532 40 612.357 40 669 c 0
 40 739 97 796 167 796 c 0
 182 796 187 792 187 776 c 2
 187 44 l 1
 272 44 l 2
 277 44 283 39 283 34 c 2
 283 13 l 2
 283 8 277 3 272 3 c 2
 62 3 l 2
 57 3 51 8 51 13 c 2
 51 34 l 2
 51 39 57 44 62 44 c 2
 146 44 l 1
 146 753 l 1
 108 744 81 709 81 669 c 0
 81 620.169 111.466 612.137 111.466 594.234 c 0
 111.466 583.051 103.224 571.532 92.291 571.532 c 0
EndSplineSet
Validated: 1
EndChar

StartChar: two
Encoding: 50 50 55
Width: 493
VWidth: -210
Flags: W
HStem: 1 41<113.265 448> 751 41<166.974 321.616>
VStem: 41 41<73.0441 183.374 569.543 666.454> 406 41<509.622 665.127>
LayerCount: 2
Fore
SplineSet
243 792 m 0
 356 792 447 702 447 589 c 0
 447 493.091 386.883 444.883 378 436 c 2
 351 411 l 1
 219.969 296.834 126.983 208.983 100 182 c 1
 88 168 82 148 82 128 c 0
 82 80 120 42 169 42 c 2
 438 42 l 2
 443 42 448 37 448 32 c 2
 448 11 l 2
 448 6 443 1 438 1 c 2
 168 1 l 2
 98 1 41 58 41 128 c 0
 41 192.404 83.29 222.926 107 245 c 2
 359 474 l 1
 388 503 406 544 406 589 c 0
 406 679 333 751 243 751 c 0
 153 751 82 679 81 589 c 0
 81 576 70.75 569.5 60.5 569.5 c 0
 50.25 569.5 40 576 40 589 c 0
 40 702 130 792 243 792 c 0
EndSplineSet
Validated: 1
EndChar

StartChar: zero
Encoding: 48 48 56
Width: 512
VWidth: -205
Flags: W
HStem: 2 41<177.553 333.421> 752 41<179.804 334.616>
VStem: 53 41<127.609 664.8> 419 41<128.953 664.8>
LayerCount: 2
Fore
SplineSet
256 793 m 0
 369 793 460 703 460 590 c 2
 460 196 l 1
 455 88 365 2 256 2 c 0
 146 2 57 89 53 198 c 0
 53 201 52 203 52 206 c 0
 52 208 53 209 53 211 c 2
 53 585 l 2
 53 587 52 588 52 590 c 0
 52 703 143 793 256 793 c 0
256 752 m 0
 166 752 94 680 94 590 c 2
 94 199 l 1
 97 112 168 43 256 43 c 0
 346 43 419 116 419 206 c 0
 419 590 l 0
 419 680 346 752 256 752 c 0
363 511 m 0
 374.245 511 385 499.376 385 488 c 0
 385 484 384 480 380 476 c 2
 166 277 l 2
 163 274 158 273 154 273 c 0
 143 273 132 284 132 295 c 0
 132 299 134 304 138 308 c 2
 352 506 l 2
 357 511 362 511 363 511 c 0
EndSplineSet
Validated: 1
EndChar

StartChar: three
Encoding: 51 51 57
Width: 487
VWidth: -407
Flags: W
HStem: -1 41<167.688 320.946> 751 41<167.688 320.946>
VStem: 40 41<126.688 280.294 510.703 664.312> 56 39<204.792 292.432 498.568 586.213> 293 41<347.746 443.078> 406 41<125.314 257.683 533.875 665.686>
LayerCount: 2
Fore
SplineSet
81 588 m 0xec
 81 549.636 95 527.354 95 519 c 0
 95 508 82 498 71 498 c 0
 65 498 59 501 56 509 c 0xdc
 46 533 40 560 40 588 c 0
 40 701 131 792 244 792 c 0
 352 792 441 707 447 600 c 1
 447 579 l 1
 444 547 430 518 408 497 c 1
 390.602 478.441 396.533 484.455 348 437 c 1
 339 426 334 411 334 395 c 0
 334 380 338 366 347 355 c 1
 407 296 l 1
 430 275 444 246 447 213 c 1
 447 191 l 1
 441 84 352 -1 244 -1 c 0
 131 -1 40 90 40 203 c 0xec
 40 231 46 258 56 282 c 0
 59 290 65 293 71 293 c 0
 82 293 95 283 95 272 c 0xdc
 95 263.507 81 241.479 81 203 c 0
 81 113 154 40 244 40 c 0
 334 40 406 113 406 203 c 2
 406 204 l 2
 406 224 399 243 387 257 c 1
 324 320 l 2
 305 339 293 366 293 395 c 0
 293 423 303 449 321 468 c 1
 336.146 481.187 349.65 496.016 364 510 c 2
 385 532 l 2
 398 547 406 566 406 587 c 2
 406 588 l 2
 406 678 334 751 244 751 c 0
 154 751 81 678 81 588 c 0xec
EndSplineSet
Validated: 1
EndChar

StartChar: period
Encoding: 46 46 58
Width: 199
VWidth: -150
Flags: W
HStem: -27 41<87.3771 111.443> 39 41<87.3771 111.443>
VStem: 46 41<14.3771 38.4435> 112 41<14.3771 38.4435>
LayerCount: 2
Fore
SplineSet
100 80 m 0
 130 80 153 57 153 27 c 0
 153 -3 130 -27 100 -27 c 0
 70 -27 46 -3 46 27 c 0
 46 57 70 80 100 80 c 0
87 27 m 0
 87 20 93 14 100 14 c 0
 107 14 112 20 112 27 c 0
 112 34 107 39 100 39 c 0
 93 39 87 34 87 27 c 0
EndSplineSet
Validated: 1
EndChar

StartChar: comma
Encoding: 44 44 59
Width: 182
VWidth: -150
Flags: W
HStem: -100 41<-2.38281 70.5983> 39 41<77.1561 101.223>
VStem: 35.5996 41<14.22 38.6229> 101.6 41<15.1283 38.6229>
LayerCount: 2
Fore
SplineSet
15.5996 -59 m 0
 50.2168 -59 77.5996 -37.4473 77.5996 -30 c 0
 77.5996 -21 35.5996 -19 35.5996 26 c 0
 35.5996 56 58.5996 80 88.5996 80 c 0
 118.6 80 142.6 56 142.6 26 c 0
 142.6 -44 85.5996 -100 15.5996 -100 c 0
 3.59961 -100 -2.40039 -89 -2.40039 -79 c 0
 -2.40039 -69 3.59961 -59 15.5996 -59 c 0
88.5996 39 m 0
 81.5996 39 76.5996 33 76.5996 26 c 0
 76.5996 19 81.5996 14 88.5996 14 c 0
 95.5996 14 101.6 19 101.6 26 c 0
 101.6 33 95.5996 39 88.5996 39 c 0
EndSplineSet
Validated: 1
EndChar

StartChar: semicolon
Encoding: 59 59 60
Width: 184
VWidth: -150
Flags: W
HStem: -68 41<-2.38281 69.6507> 70 41<76.9767 101.043> 356 41<76.9767 101.043> 422 41<76.9767 101.043>
VStem: 35.5996 41<46.379 69.4435 397.377 421.443> 101.6 41<48.6644 68.8906 397.377 421.443>
LayerCount: 2
Fore
SplineSet
89.5996 463 m 0
 119.6 463 142.6 440 142.6 410 c 0
 142.6 380 119.6 356 89.5996 356 c 0
 59.5996 356 35.5996 380 35.5996 410 c 0
 35.5996 440 59.5996 463 89.5996 463 c 0
89.5996 422 m 0
 82.5996 422 76.5996 417 76.5996 410 c 0
 76.5996 403 82.5996 397 89.5996 397 c 0
 96.5996 397 101.6 403 101.6 410 c 0
 101.6 417 96.5996 422 89.5996 422 c 0
17.373 -27.0029 m 0
 54.5654 -27.0029 78.7021 -1.56934 78.7021 1.03516 c 0
 78.7021 8.83789 35.5996 14.6035 35.5996 58 c 0
 35.5996 88 59.5996 111 89.5996 111 c 0
 119.6 111 142.6 88 142.6 58 c 2
 142.6 55 l 1
 139.6 -13 84.5996 -68 15.5996 -68 c 1
 3.59961 -67 -2.40039 -58 -2.40039 -48 c 0
 -2.40039 -38 3.59961 -27 15.5996 -27 c 0
 16.1348 -27 16.7266 -27.0029 17.373 -27.0029 c 0
89.5996 70 m 0
 82.5996 70 76.5996 65 76.5996 58 c 0
 76.5996 51 82.5996 46 89.5996 46 c 0
 96.5996 46 101.6 51 101.6 58 c 0
 101.6 65 96.5996 70 89.5996 70 c 0
EndSplineSet
Validated: 1
EndChar

StartChar: colon
Encoding: 58 58 61
Width: 191
VWidth: -155
Flags: W
HStem: -1 41<83.3771 107.443> 65 41<83.3771 107.443> 351 41<83.3771 107.443> 417 41<83.3771 107.443>
VStem: 42 41<40.3771 64.4435 392.377 416.443> 108 41<40.3771 64.4435 392.377 416.443>
LayerCount: 2
Fore
SplineSet
96 458 m 0
 126 458 149 435 149 405 c 0
 149 375 126 351 96 351 c 0
 66 351 42 375 42 405 c 0
 42 435 66 458 96 458 c 0
96 417 m 0
 89 417 83 412 83 405 c 0
 83 398 89 392 96 392 c 0
 103 392 108 398 108 405 c 0
 108 412 103 417 96 417 c 0
96 106 m 0
 126 106 149 83 149 53 c 0
 149 23 126 -1 96 -1 c 0
 66 -1 42 23 42 53 c 0
 42 83 66 106 96 106 c 0
96 65 m 0
 89 65 83 60 83 53 c 0
 83 46 89 40 96 40 c 0
 103 40 108 46 108 53 c 0
 108 60 103 65 96 65 c 0
EndSplineSet
Validated: 1
EndChar

StartChar: four
Encoding: 52 52 62
Width: 520
VWidth: 50
Flags: W
HStem: -2 21G<348.5 374.5> 365 41<112.265 341 382 474> 752 41<304.412 339.934>
VStem: 40 41<437.044 546.923> 341 41<-2 365 406 750.891>
LayerCount: 2
Fore
SplineSet
329 793 m 0
 359 793 383 770 383 740 c 0
 383 738 382 406 382 406 c 1
 464 406 l 2
 469 406 474 401 474 396 c 2
 474 375 l 2
 474 370 469 365 464 365 c 2
 382 365 l 1
 382 9 l 2
 382 4 377 -2 372 -2 c 2
 351 -2 l 2
 346 -2 341 4 341 9 c 2
 341 365 l 1
 167 365 l 0
 97 365 40 422 40 492 c 0
 40 558.41 85.2139 589.393 107 609 c 2
 291 778 l 2
 301 788 314 793 329 793 c 0
329 752 m 0
 326 752 324 751 322 749 c 1
 321 749 l 1
 299.099 728.251 141.6 587.6 99 545 c 1
 87 531 81 512 81 492 c 0
 81 444 119 406 168 406 c 2
 341 406 l 1
 341 742 l 1
 340 748 335 752 329 752 c 0
EndSplineSet
Validated: 1
EndChar

StartChar: five
Encoding: 53 53 63
Width: 499
VWidth: 50
Flags: W
HStem: -1 41<179.688 332.127> 365 41<128.292 330.8> 747 41<125.781 429.982>
VStem: 53 41<124.384 281.044 440.034 716.677> 418 41<124.384 279.127>
LayerCount: 2
Fore
SplineSet
176 788 m 1
 412 788 l 2
 424 788 430 778 430 768 c 0
 430 758 424 747 412 747 c 2
 176 747 l 2
 132 747 93 705 94 666 c 1
 94 664 l 1
 94.333 658 94.4443 652.111 94.4443 641.704 c 0
 94.4443 620.889 94 582 94 488 c 0
 94 449 138 406 174 406 c 2
 256 406 l 2
 369 406 459 316 459 203 c 0
 459 90 369 -1 256 -1 c 0
 143 -1 52 90 52 203 c 0
 52 231 58 258 68 282 c 0
 71.0352 289.757 77.3691 292.964 84.0869 292.964 c 0
 95.2031 292.964 107.368 284.181 107.368 272.699 c 0
 107.368 270.547 106.941 268.301 106 266 c 0
 98 247 93 225 93 203 c 0
 93 113 166 40 256 40 c 0
 346 40 418 113 418 203 c 0
 418 293 346 365 256 365 c 0
 178 365 l 0
 113 366 53 420 53 481 c 2
 53 666 l 2
 53 729 109 787 176 788 c 1
EndSplineSet
Validated: 33
EndChar

StartChar: six
Encoding: 54 54 64
Width: 500
VWidth: -207
Flags: W
HStem: 0 41<180.158 332.32> 366 41<179.005 334.624> 750 41<179.881 333.78>
VStem: 53.0078 41<127.839 283.64 335.818 662.8> 419.008 41<127.688 280.127 570.018 665.454>
LayerCount: 2
Fore
SplineSet
256.008 366 m 0
 168.008 366 95.0078 296 94.0078 208 c 1
 94.0078 203 l 2
 94.0078 114 167.008 41 256.008 41 c 0
 346.008 41 419.008 114 419.008 204 c 0
 419.008 294 346.008 366 256.008 366 c 0
460.008 598 m 2
 460.008 588 l 2
 460.008 576 449.008 570 439.008 570 c 0
 429.008 570 419.008 576 419.008 588 c 0
 419.008 678 346.008 750 256.008 750 c 0
 166.008 750 94.0078 678 94.0078 588 c 2
 94.0078 345 l 2
 94.0078 335 97.0078 332 101.008 336 c 2
 109.008 344 l 1
 129.734 368.872 184.645 407 256.008 407 c 0
 369.008 407 460.008 317 460.008 204 c 0
 460.008 91 369.008 0 256.008 0 c 0
 143.616 0 52 90.0225 52 202.176 c 0
 52 205.617 53.0078 205.235 53.0078 206 c 2
 53.0078 588 l 2
 53.0078 701 143.008 791 256.008 791 c 0
 365.008 791 460.008 699 460.008 598 c 2
EndSplineSet
Validated: 1
EndChar

StartChar: seven
Encoding: 55 55 65
Width: 574
VWidth: -205
Flags: W
HStem: -1 21G<131.5 157.5> -1 21G<131.5 157.5> 409 41<238.018 297 369 433.996> 750 41<46 489.561>
VStem: 124 41<-1 136.995> 490 41<704.122 749.467>
LayerCount: 2
Fore
SplineSet
531 737 m 0xbc
 531 716.78 522 708.779 522 707 c 2
 369 450 l 1
 416 450 l 2
 428 450 434 439.75 434 429.5 c 0
 434 419.25 428 409 416 409 c 2
 345 409 l 1
 184 137 l 2
 173.935 119.386 165 107.416 165 83 c 2
 165 10 l 2
 165 5 160 -1 155 -1 c 2
 134 -1 l 2
 129 -1 124 5 124 10 c 2
 124 83 l 2
 124 101 128 117 134 132 c 1
 149.72 163.44 141.761 147.924 223 284 c 2
 297 409 l 1
 256 409 l 2
 244 409 238 419 238 429 c 0
 238 439 244 450 256 450 c 2
 321 450 l 1
 489 732 l 2
 490 733 490 736 490 737 c 0
 490 744 485 750 478 750 c 2
 56 750 l 2
 51 750 46 755 46 760 c 2
 46 781 l 2
 46 786 51 791 56 791 c 2
 479 791 l 2
 508 791 531 766 531 737 c 0xbc
EndSplineSet
Validated: 1
EndChar

StartChar: hyphen
Encoding: 45 45 66
Width: 495
VWidth: -360
Flags: W
HStem: 273.328 41.2969<50.5422 444.906>
LayerCount: 2
Fore
SplineSet
63.8994 314.625 m 2
 431.549 314.625 l 2
 455.68 314.461 455.166 273.27 431.549 273.328 c 2
 63.8994 273.328 l 2
 40.2725 273.27 39.7959 314.461 63.8994 314.625 c 2
EndSplineSet
Validated: 33
EndChar

StartChar: eight
Encoding: 56 56 67
Width: 533
VWidth: -205
Flags: W
HStem: -2 41<181.045 351.141> 379 41<179.033 353.198> 760 41<181.045 351.141>
VStem: 40 44<129.679 289.435 510.523 669.321> 449 44<131.498 287.891 512.276 667.502>
CounterMasks: 1 e0
LayerCount: 2
Fore
SplineSet
266 -2 m 0
 141 -2 40 92 40 209 c 0
 40 308.251 115.524 377.21 155 393 c 0
 160 395 160 404 155 406 c 0
 128.89 416.444 40 479.6 40 590 c 0
 40 707 141 801 266 801 c 0
 391 801 493 707 493 590 c 0
 493 479.6 401.976 415.59 378 406 c 0
 373 404 373 395 378 393 c 0
 396.588 385.565 493 324.052 493 209 c 0
 493 92 391 -2 266 -2 c 0
266 39 m 0
 367 39 449 115 449 209 c 0
 449 303 367 379 266 379 c 0
 165 379 84 303 84 209 c 0
 84 115 165 39 266 39 c 0
266 420 m 0
 367 420 449 496 449 590 c 0
 449 684 367 760 266 760 c 0
 165 760 84 684 84 590 c 0
 84 496 165 420 266 420 c 0
EndSplineSet
Validated: 1
EndChar

StartChar: nine
Encoding: 57 57 68
Width: 491
VWidth: -205
Flags: W
HStem: -1.74414 21G<71.1655 74.2041> 389.471 40.7158<169.014 296.328> 755.459 40.9023<170.122 325.398>
VStem: 43 41.2432<516.479 671.323> 409.492 41.5693<514.891 670.774>
LayerCount: 2
Fore
SplineSet
364.033 759 m 0
 420.581 719.048 451.062 655.672 451.062 591.397 c 0
 451.062 551.102 439.081 510.452 414.033 475 c 2
 194.033 164 l 1
 81.0332 2 l 2
 79.8223 -0.421875 76.0439 -1.74414 72.3643 -1.74414 c 0
 69.9668 -1.74414 67.6113 -1.18359 66.0332 0 c 2
 49.0332 11 l 2
 46.6113 12.8164 45.2891 16.4668 45.2891 19.9521 c 0
 45.2891 22.2217 45.8496 24.4219 47.0332 26 c 2
 299.033 384 l 2
 309.996 398.617 296.042 395.252 287.033 393 c 1
 264.033 390 l 1
 258.703 389.645 253.445 389.471 248.263 389.471 c 0
 124.196 389.471 43 489.286 43 594.021 c 0
 43 633.694 54.6504 674.073 80.0332 710 c 0
 119.794 766.277 182.755 796.361 246.712 796.361 c 0
 287.311 796.361 328.311 784.239 364.033 759 c 0
340.033 726 m 0
 312.014 745.959 279.868 755.459 247.952 755.459 c 0
 196.718 755.459 146.074 730.98 114.033 686 c 0
 93.8828 657.711 84.2432 625.218 84.2432 593 c 0
 84.2432 542.08 108.322 491.849 153.033 460 c 0
 181.439 439.879 214.205 430.187 246.661 430.187 c 0
 296.469 430.187 345.549 453.012 377.033 496 c 0
 378.033 497 379.033 499 380.033 500 c 0
 399.993 528.02 409.492 560.312 409.492 592.354 c 0
 409.492 643.789 385.014 694.575 340.033 726 c 0
EndSplineSet
Validated: 1
EndChar

StartChar: underscore
Encoding: 95 95 69
Width: 471
VWidth: -410
Flags: W
HStem: -25.7656 27.5312<41.6406 429.474>
LayerCount: 2
Fore
SplineSet
431.641 -12.0469 m 0
 431.601 -18.917 427.58 -25.7852 419.703 -25.7656 c 2
 235.819 -25.7656 l 1
 51.9355 -25.7656 l 2
 36.1816 -25.8047 35.8633 1.65625 51.9355 1.76562 c 2
 235.819 1.76562 l 1
 419.703 1.76562 l 2
 427.739 1.71094 431.68 -5.17676 431.641 -12.0469 c 0
EndSplineSet
Validated: 1
EndChar

StartChar: equal
Encoding: 61 61 70
Width: 495
VWidth: -410
Flags: W
HStem: 184.232 41.2969<50.5425 444.905> 366.67 41.2969<50.5425 444.907>
LayerCount: 2
Fore
SplineSet
63.9004 407.967 m 2
 431.55 407.967 l 2
 455.678 407.803 455.168 366.611 431.55 366.67 c 2
 63.9004 366.67 l 2
 40.2725 366.611 39.7949 407.803 63.9004 407.967 c 2
63.9004 225.529 m 2
 431.55 225.529 l 2
 455.681 225.365 455.164 184.174 431.55 184.232 c 2
 63.9004 184.232 l 2
 40.2725 184.174 39.7949 225.365 63.9004 225.529 c 2
EndSplineSet
Validated: 33
EndChar

StartChar: plus
Encoding: 43 43 71
Width: 495
VWidth: -360
Flags: W
HStem: 273.342 41.2969<50.5422 227.067 268.372 444.897>
VStem: 227.071 41.2969<96.8129 273.338 314.643 491.167>
LayerCount: 2
Fore
SplineSet
227.071 477.811 m 2
 227.013 501.427 268.204 501.942 268.368 477.811 c 2
 268.368 324.836 l 2
 268.368 320.029 273.759 314.639 278.566 314.639 c 2
 431.54 314.639 l 2
 455.668 314.474 455.158 273.283 431.54 273.342 c 2
 278.566 273.342 l 2
 273.759 273.342 268.368 267.951 268.368 263.143 c 2
 268.368 110.17 l 2
 268.204 86.041 227.013 86.5518 227.071 110.17 c 2
 227.071 263.143 l 2
 227.071 267.951 221.681 273.342 216.873 273.342 c 2
 63.8994 273.342 l 2
 40.2725 273.283 39.7959 314.475 63.8994 314.639 c 2
 216.873 314.639 l 2
 221.681 314.639 227.071 320.029 227.071 324.836 c 2
 227.071 477.811 l 2
EndSplineSet
Validated: 33
EndChar

StartChar: asterisk
Encoding: 42 42 72
Width: 495
VWidth: -410
Flags: W
HStem: 535.842 41.2969<46.0044 227.073 268.374 449.442>
VStem: 227.077 41.2969<354.767 535.838 577.143 758.21>
LayerCount: 2
Fore
SplineSet
227.077 740.311 m 2
 227.158 752.31 237.388 758.215 247.644 758.215 c 0
 258.01 758.215 268.403 752.182 268.374 740.311 c 2
 268.374 587.357 l 2
 268.374 582.55 273.785 577.139 278.593 577.139 c 2
 431.546 577.139 l 2
 443.419 577.168 449.446 566.782 449.446 556.42 c 0
 449.446 546.16 443.538 535.924 431.546 535.842 c 2
 278.593 535.842 l 2
 273.785 535.842 268.374 530.43 268.374 525.623 c 2
 268.374 372.67 l 2
 268.403 360.797 258.009 354.763 247.642 354.763 c 0
 237.387 354.763 227.158 360.668 227.077 372.67 c 2
 227.077 525.623 l 2
 227.077 530.43 221.666 535.842 216.858 535.842 c 2
 63.9053 535.842 l 2
 51.9053 535.925 46 546.153 46 556.408 c 0
 46 566.775 52.0342 577.169 63.9053 577.139 c 2
 216.858 577.139 l 2
 221.666 577.139 227.077 582.549 227.077 587.357 c 2
 227.077 740.311 l 2
103.14 671.873 m 2
 99.5938 675.468 98.0947 679.59 98.0947 683.699 c 0
 98.0947 694.967 109.357 706.146 120.57 706.146 c 0
 124.688 706.146 128.799 704.639 132.343 701.076 c 2
 190.046 643.373 l 2
 193.603 639.815 195.694 634.396 195.694 628.824 c 0
 195.694 623.683 193.913 618.411 189.858 614.357 c 0
 185.804 610.303 180.533 608.521 175.391 608.521 c 0
 169.819 608.521 164.399 610.612 160.843 614.17 c 2
 103.14 671.873 l 2
363.108 701.076 m 2
 366.756 704.675 370.93 706.199 375.08 706.199 c 0
 386.28 706.199 397.249 695.293 397.378 683.638 c 0
 397.378 679.516 395.867 675.411 392.312 671.873 c 2
 334.608 614.17 l 2
 331.052 610.612 325.631 608.521 320.06 608.521 c 0
 314.918 608.521 309.647 610.303 305.593 614.357 c 0
 301.538 618.411 299.757 623.683 299.757 628.824 c 0
 299.757 634.396 301.849 639.816 305.405 643.373 c 2
 363.108 701.076 l 2
160.843 498.811 m 2
 164.888 502.856 170.014 504.712 175.082 504.712 c 0
 185.121 504.712 194.934 497.436 195.671 485.498 c 0
 196.044 479.456 193.893 473.455 190.046 469.607 c 2
 132.343 411.904 l 2
 128.89 408.435 124.811 406.958 120.693 406.958 c 0
 109.558 406.958 98.0713 417.528 98.0713 429.235 c 0
 98.0713 433.353 99.5684 437.486 103.14 441.107 c 2
 160.843 498.811 l 2
305.593 498.623 m 0
 309.469 502.498 314.882 504.403 320.254 504.403 c 0
 325.599 504.403 330.902 502.518 334.608 498.811 c 2
 392.312 441.107 l 2
 395.781 437.654 397.258 433.575 397.258 429.458 c 0
 397.258 418.323 386.688 406.992 374.978 406.835 c 0
 370.861 406.835 366.729 408.333 363.108 411.904 c 2
 305.405 469.607 l 2
 301.849 473.164 299.757 478.584 299.757 484.155 c 0
 299.757 489.297 301.538 494.568 305.593 498.623 c 0
EndSplineSet
Validated: 1
EndChar

StartChar: exclam
Encoding: 33 33 73
Width: 199
VWidth: -205
Flags: W
HStem: -28 41<87.3771 111.443> 38 41<87.3771 111.443> 773 20G<95 105>
VStem: 46 41<13.5565 37.6229> 79 41<155.015 792.982> 112 41<13.5565 37.6229>
LayerCount: 2
Fore
SplineSet
120 775 m 2xe8
 120 172 l 2
 120 160 110 155 100 155 c 0
 90 155 79 160 79 172 c 2
 79 775 l 2
 79 787 90 793 100 793 c 0
 110 793 120 787 120 775 c 2xe8
100 79 m 0
 130 79 153 55 153 25 c 0
 153 -5 130 -28 100 -28 c 0
 70 -28 46 -5 46 25 c 0xf4
 46 55 70 79 100 79 c 0
100 38 m 0
 93 38 87 32 87 25 c 0
 87 18 93 13 100 13 c 0
 107 13 112 18 112 25 c 0
 112 32 107 38 100 38 c 0
EndSplineSet
Validated: 1
EndChar

StartChar: quotedbl
Encoding: 34 34 74
Width: 277
VWidth: -205
Flags: W
HStem: 537 218<52 93 184 225>
VStem: 52 41<537.004 754.982> 184 41<537.004 754.982>
LayerCount: 2
Fore
SplineSet
73 755 m 0
 83 755 93 749 93 737 c 2
 93 555 l 2
 93 543 82.75 537 72.5 537 c 0
 62.25 537 52 543 52 555 c 2
 52 737 l 2
 52 749 63 755 73 755 c 0
204 755 m 0
 214 755 225 749 225 737 c 2
 225 555 l 2
 225 543 214.75 537 204.5 537 c 0
 194.25 537 184 543 184 555 c 2
 184 737 l 2
 184 749 194 755 204 755 c 0
EndSplineSet
Validated: 1
EndChar

StartChar: asciitilde
Encoding: 126 126 75
Width: 445
VWidth: -410
Flags: W
HStem: 437 41<252.915 337.875> 545 42<104.208 190.688>
VStem: 50 41<445.026 530.567> 353 42<492.212 574.995>
LayerCount: 2
Fore
SplineSet
71 445 m 0
 53.7246 445 50 471.481 50 489 c 0
 50 546 99 587 150 587 c 0
 176 587 202 576 223 552 c 0
 247 523 243 482 291 478 c 1
 296 478 l 2
 328 478 353 504 353 535 c 0
 353 546 349 553 349 557 c 0
 349 568 363 575 374 575 c 0
 381 575 387 572 389 566 c 0
 393 555 395 543 395 533 c 0
 395 477 345 437 294 437 c 0
 268 437 241 447 221 471 c 0
 198 498 201 541 153 545 c 1
 148 545 l 2
 117 545 91 519 91 488 c 0
 91 474.2 95 469.6 95 465 c 0
 95 454 82 445 71 445 c 0
EndSplineSet
Validated: 1
EndChar

StartChar: quotesingle
Encoding: 39 39 76
Width: 145
VWidth: -205
Flags: W
HStem: 537 218<52 93>
VStem: 52 41<537.004 754.982>
LayerCount: 2
Fore
SplineSet
73 755 m 0
 83 755 93 749 93 737 c 2
 93 555 l 2
 93 543 82.75 537 72.5 537 c 0
 62.25 537 52 543 52 555 c 2
 52 737 l 2
 52 749 63 755 73 755 c 0
EndSplineSet
Validated: 1
EndChar

StartChar: numbersign
Encoding: 35 35 77
Width: 537
VWidth: -310
Flags: W
HStem: 221.745 41.2969<50.5422 156.806 198.11 339.236 380.546 491.329> 404.183 41.2969<50.5422 156.806 198.11 339.236 380.546 491.329>
VStem: 156.806 41.2969<110.956 221.739 263.042 404.183 445.486 556.269> 339.243 41.2969<110.956 221.739 263.049 404.183 445.486 551.744>
LayerCount: 2
Fore
SplineSet
177.384 556.292 m 0
 187.695 556.352 198.021 550.44 198.103 538.386 c 1
 198.103 461.812 l 1
 198.103 453.799 207.732 445.479 215.745 445.479 c 1
 321.601 445.479 l 1
 329.615 445.479 339.243 453.799 339.243 461.812 c 1
 339.243 538.386 l 1
 339.185 562.014 380.376 562.491 380.54 538.386 c 1
 380.54 461.812 l 1
 380.54 454.113 389.174 445.479 396.873 445.479 c 1
 473.446 445.479 l 1
 485.501 445.397 491.412 435.066 491.353 424.761 c 0
 491.293 414.455 485.262 404.153 473.446 404.183 c 1
 396.873 404.183 l 1
 388.824 404.183 380.54 394.447 380.54 386.398 c 1
 380.54 279.236 l 1
 380.54 271.568 389.206 263.042 396.873 263.042 c 1
 473.446 263.042 l 1
 485.501 262.96 491.412 252.628 491.353 242.323 c 0
 491.293 232.018 485.262 221.716 473.446 221.745 c 1
 396.873 221.745 l 1
 389.048 221.745 380.54 212.707 380.54 204.882 c 1
 380.54 128.839 l 1
 380.458 116.785 370.128 110.873 359.821 110.933 c 0
 349.517 110.992 339.214 117.023 339.243 128.839 c 1
 339.243 204.882 l 1
 339.243 213.182 329.229 221.745 320.93 221.745 c 1
 216.418 221.745 l 1
 208.119 221.745 198.103 213.182 198.103 204.882 c 1
 198.103 128.839 l 1
 198.021 116.785 187.69 110.873 177.384 110.933 c 0
 167.079 110.992 156.776 117.023 156.806 128.839 c 1
 156.806 204.882 l 1
 156.806 212.832 147.893 221.745 139.944 221.745 c 1
 63.8994 221.745 l 1
 40.2725 221.687 39.7959 262.878 63.8994 263.042 c 1
 139.944 263.042 l 1
 147.737 263.042 156.806 271.443 156.806 279.236 c 1
 156.806 386.398 l 1
 156.806 394.567 148.113 404.183 139.944 404.183 c 1
 63.8994 404.183 l 1
 40.2725 404.124 39.7959 445.315 63.8994 445.479 c 1
 139.944 445.479 l 1
 147.77 445.479 156.806 453.987 156.806 461.812 c 1
 156.806 538.386 l 1
 156.776 550.201 167.073 556.232 177.384 556.292 c 0
215.745 404.183 m 2
 207.43 404.183 198.103 394.857 198.103 386.54 c 1
 198.103 280.685 l 1
 198.103 272.369 207.43 263.042 215.745 263.042 c 1
 321.601 263.042 l 1
 329.918 263.042 339.243 272.369 339.243 280.685 c 1
 339.243 386.54 l 1
 339.243 394.857 329.918 404.183 321.601 404.183 c 1
 215.745 404.183 l 2
EndSplineSet
Validated: 33
EndChar

StartChar: dollar
Encoding: 36 36 78
Width: 553
VWidth: -205
Flags: W
HStem: -1 41<239 306 347 404.605> 750 41<146.652 198 239 306>
VStem: 40 38<542.828 680.677> 46 41<127.338 223.229> 198 41<-36.9956 -1 48 392 464 748 791 831.982> 306 41<-36.9956 -1 41 330 402 741 791 831.982> 456 41<567.878 663.897> 475 38<110.671 244.976>
LayerCount: 2
Fore
SplineSet
219 832 m 0xec
 229 832 239 826 239 814 c 2
 239 791 l 1
 306 791 l 1
 306 814 l 2
 306 826 317 832 327 832 c 0
 337 832 347 826 347 814 c 2
 347 784 l 1
 434 761 497 681 497 587 c 0
 497 574.127 486.95 567.873 476.802 567.873 c 0
 466.452 567.873 456 574.378 456 587 c 0xee
 456 658 411 719 347 741 c 1
 347 378 l 1
 412 340 l 1
 434 326 l 1
 477.909 299.654 513 239.481 513 178 c 0
 513 84 440 6 347 -1 c 1
 347 -19 l 2
 347 -31 336.75 -37 326.5 -37 c 0
 316.25 -37 306 -31 306 -19 c 2
 306 -1 l 1
 239 -1 l 1
 239 -19 l 2
 239 -31 228.75 -37 218.5 -37 c 0
 208.25 -37 198 -31 198 -19 c 2
 198 5 l 1
 110 28 46 108 46 203 c 0
 46 216.965 55.5078 223.277 65.3662 223.277 c 0
 75.9795 223.277 87 215.961 87 203 c 0xdd
 87 131 134 70 198 48 c 1
 198 416 l 1
 125 459 l 2
 75.6172 487.807 40 546.858 40 612 c 0
 40 704 109 780 198 790 c 1
 198 814 l 2
 198 826 209 832 219 832 c 0xec
252 750 m 1
 239 749 l 1
 239 440 l 1
 306 402 l 1
 306 749 l 1
 302 749 298 750 294 750 c 2
 252 750 l 1
198 748 m 1
 130 739 78 681 78 612 c 0
 78 566.8 99.9941 525.433 137 499 c 1
 198 464 l 1
 198 748 l 1
239 392 m 1
 239 40 l 1
 306 40 l 1
 306 354 l 1
 239 392 l 1
347 330 m 1
 347 41 l 1
 419 47 475 106 475 178 c 0xcd
 475 223.2 452.271 264.378 415 291 c 1
 347 330 l 1
EndSplineSet
Validated: 1
EndChar

StartChar: cent
Encoding: 162 162 79
Width: 423
VWidth: -205
Flags: W
HStem: 72 42<169.837 228 269 335.318> 435 42<169.837 228 269 335.897>
VStem: 48 41<197.147 352.58> 228 41<3.01758 74.1632 114 435 475.663 536.982>
LayerCount: 2
Fore
SplineSet
249 537 m 0
 259 537 269 531 269 519 c 2
 269 478 l 1
 321.157 473.032 385.827 441.157 385.827 421.416 c 0
 385.827 419.087 384.927 416.927 383 415 c 2
 369 402 l 2
 362.428 396.742 353.829 400.171 350 404 c 0
 338 413 l 0
 319.229 424.732 295.604 432.453 269 436 c 1
 269 113 l 1
 336.16 121.955 349.393 149.861 362.059 149.861 c 0
 364.292 149.861 366.509 148.993 369 147 c 1
 383 134 l 2
 384.768 132.232 385.6 130.218 385.6 128.02 c 0
 385.6 109.316 325.377 77.3691 269 72 c 1
 269 21 l 2
 269 9 259 3 249 3 c 0
 239 3 228 9 228 21 c 2
 228 72 l 1
 127 84 48 169 48 274 c 2
 48 275 l 2
 48 380 127 465 228 477 c 1
 228 519 l 2
 228 531 239 537 249 537 c 0
228 435 m 1
 149 424 89 357 89 275 c 0
 89 193 149 125 228 114 c 1
 228 435 l 1
EndSplineSet
Validated: 1
EndChar

StartChar: slash
Encoding: 47 47 80
Width: 563
VWidth: -205
Flags: W
LayerCount: 2
Fore
SplineSet
479.415 772 m 2
 482.913 777.83 488.402 780.26 494.118 780.26 c 0
 505.166 780.26 517.062 771.181 517.062 760.021 c 0
 517.062 757.113 516.255 754.065 514.415 751 c 2
 84.415 23 l 2
 80.918 17.1719 75.3838 14.7402 69.5928 14.7402 c 0
 58.2852 14.7402 46 24.0117 46 35.3682 c 0
 46 38.1553 46.7393 41.0684 48.415 44 c 2
 479.415 772 l 2
EndSplineSet
Validated: 1
EndChar

StartChar: ampersand
Encoding: 38 38 81
Width: 568
VWidth: -410
Flags: W
HStem: -1 41<181.045 352.359> 751.979 40.9912<194.466 329.466>
VStem: 40 44<130.679 289.854> 92.3965 41.1523<556.098 691.214> 389.067 41.0146<557.405 691.035> 449 44<150.74 288.106>
LayerCount: 2
Fore
SplineSet
92.3965 623.765 m 0
 92.3965 716.962 167.222 792.971 262.772 792.971 c 0
 360.095 792.971 430.082 707.484 430.082 619.896 c 0
 430.082 571.568 408.776 522.602 359 487 c 2
 254 413 l 1
 437 150 l 1
 445 169 449 189 449 210 c 0
 449 257 428 299 395 330 c 0
 384.209 340.137 379.514 350.808 379.514 359.252 c 0
 379.514 368.701 385.394 375.36 395.195 375.36 c 0
 422.627 375.36 493 305.727 493 210 c 0
 493 173 483 139 465 109 c 1
 520 31 l 2
 522.266 27.7637 523.248 24.4482 523.248 21.2451 c 0
 523.248 9.86816 510.854 -0.0947266 499.551 -0.0947266 c 0
 494.373 -0.0947266 489.424 1.99609 486 7 c 2
 440 74 l 1
 398 28 335 -1 266 -1 c 0
 141 -1 40 93 40 210 c 0
 40 268 65 321 106 359 c 1
 196 424 l 1
 125 526 l 1
 112.359 540.045 92.3965 579.935 92.3965 623.765 c 0
262.451 751.979 m 0
 185.588 751.979 133.549 688.933 133.549 623.506 c 0
 133.549 601.296 139.407 578.708 152 558 c 1
 230 447 l 1
 337 522 l 1
 373.598 551.214 389.067 587.849 389.067 623.235 c 0
 389.067 689.816 334.3 751.979 262.451 751.979 c 0
220 390 m 1
 168 353 l 1
 162 346 84 306 84 210 c 0
 84 116 165 40 266 40 c 0
 327 40 381 67 414 110 c 1
 220 390 l 1
EndSplineSet
Validated: 1
EndChar

StartChar: question
Encoding: 63 63 82
Width: 487
VWidth: -205
Flags: W
HStem: -28 41<232.377 256.443> 38 41<232.377 256.443> 751 41<165.384 320.127>
VStem: 40 41<514.815 665.127> 191 41<13.3771 37.4435> 225 41<155.004 372.385> 257 41<13.3771 37.4435> 406 41<509.479 665.127>
LayerCount: 2
Fore
SplineSet
81 589 m 0xf5
 81 550.51 95.1504 526.956 95.1504 519.123 c 0
 95.1504 507.858 82.8623 498.032 71.6328 498.032 c 0
 65.2754 498.032 59.2578 501.181 56 509 c 0
 46 533 40 561 40 589 c 0
 40 702 131 792 244 792 c 0
 357 792 447 702 447 589 c 0
 447 502.471 393.691 430.455 323 401 c 0
 319.552 399.276 306.9 395.9 291 380 c 0
 276 365 265 343 266 320 c 1
 266 173 l 2
 266 161 255.75 155 245.5 155 c 0
 235.25 155 225 161 225 173 c 2
 225 319 l 2
 225 408.055 306.962 438.962 307 439 c 0
 364.613 463.258 406 519.341 406 589 c 0
 406 679 334 751 244 751 c 0
 154 751 81 679 81 589 c 0xf5
245 79 m 0
 275 79 298 56 298 26 c 0
 298 -4 275 -28 245 -28 c 0
 215 -28 191 -4 191 26 c 0xfb
 191 56 215 79 245 79 c 0
245 38 m 0
 238 38 232 33 232 26 c 0
 232 19 238 13 245 13 c 0
 252 13 257 19 257 26 c 0
 257 33 252 38 245 38 c 0
EndSplineSet
Validated: 33
EndChar

StartChar: at
Encoding: 64 64 83
Width: 663
VWidth: -205
Flags: W
HStem: 0 41<251.947 413.059> 244 50<272.482 386.096> 307 41<481.24 567.686> 529 50<272.482 385.876> 749 41<251.947 413.944>
VStem: 40 41<258.334 531.666> 188 42<340.995 482.727> 427 41<361.922 483.893> 539 36.9121<164.996 206.847> 582 41<362.567 527.994>
LayerCount: 2
Fore
SplineSet
575.912 189.329 m 0
 575.912 160.801 485.521 0 332 0 c 0
 171 0 40 177 40 395 c 0
 40 613 171 790 332 790 c 0
 500.04 790 608.616 609.984 622 436 c 0
 622 429 623 422 623 415 c 2
 623 405 l 2
 623 351 579 307 525 307 c 0
 497 307 472 318 454 337 c 1
 431 282 383 244 328 244 c 0
 251 244 188 319 188 412 c 0
 188 505 251 579 328 579 c 0
 372 579 411 555 437 517 c 1
 439.12 521.24 440.8 534 456 534 c 0
 468 534 480 525 480 515 c 0
 480 508.678 472.304 502.642 468 451 c 0
 468 444 467 438 467 432 c 0
 467 425 469 419 469 412 c 0
 469 409 468 407 468 404 c 0
 468 373 494 348 525 348 c 0
 556 348 582 374 582 405 c 0
 582 551.766 492.56 749 332 749 c 0
 194 749 81 590 81 395 c 0
 81 200 194 41 332 41 c 0
 456.2 41 523.773 164.854 539 197 c 0
 541.693 203.06 549.827 206.853 557.601 206.853 c 0
 568.588 206.853 575.912 199.843 575.912 189.329 c 0
427 406 m 1
 427 500.142 365.971 529 328 529 c 0
 274 529 230 477 230 412 c 0
 230 347 274 294 328 294 c 0
 381 294 426 343 427 406 c 1
EndSplineSet
Validated: 1
EndChar

StartChar: percent
Encoding: 37 37 84
Width: 667
VWidth: -205
Flags: W
HStem: 5 41<442.044 551.956> 218 41<442.044 551.956> 527 41<115.044 224.956> 740 41<115.044 224.956>
VStem: 43 41<599.044 708.956> 256 41<599.044 708.956> 370 41<77.0441 186.956> 583 41<77.0441 186.956>
LayerCount: 2
Fore
SplineSet
170 781 m 0
 240 781 297 724 297 654 c 0
 297 584 240 527 170 527 c 0
 100 527 43 584 43 654 c 0
 43 724 100 781 170 781 c 0
548 781 m 0
 561.875 781 572.419 771.098 572.419 760.503 c 0
 572.419 757.659 571.659 754.766 570 752 c 2
 139 24 l 2
 135.503 18.1719 129.969 15.7402 124.178 15.7402 c 0
 112.87 15.7402 100.585 25.0117 100.585 36.3682 c 0
 100.585 39.1553 101.324 42.0684 103 45 c 2
 534 773 l 2
 537 779 542 781 548 781 c 0
170 740 m 0
 122 740 84 702 84 654 c 0
 84 606 122 568 170 568 c 0
 218 568 256 606 256 654 c 0
 256 702 218 740 170 740 c 0
497 259 m 0
 567 259 624 202 624 132 c 0
 624 62 567 5 497 5 c 0
 427 5 370 62 370 132 c 0
 370 202 427 259 497 259 c 0
497 218 m 0
 449 218 411 180 411 132 c 0
 411 84 449 46 497 46 c 0
 545 46 583 84 583 132 c 0
 583 180 545 218 497 218 c 0
EndSplineSet
Validated: 1
EndChar

StartChar: backslash
Encoding: 92 92 85
Width: 563
VWidth: -205
Flags: W
LayerCount: 2
Fore
SplineSet
48.5684 751 m 2
 46.7852 753.972 46 756.935 46 759.771 c 0
 46 771.017 58.333 780.28 69.6836 780.28 c 0
 75.501 780.28 81.0596 777.847 84.5684 772 c 2
 515.568 44 l 2
 517.243 41.0684 517.983 38.1553 517.983 35.3682 c 0
 517.983 24.0117 505.698 14.7402 494.391 14.7402 c 0
 488.6 14.7402 483.064 17.1719 479.568 23 c 2
 48.5684 751 l 2
EndSplineSet
Validated: 1
EndChar

StartChar: bracketleft
Encoding: 91 91 86
Width: 150
VWidth: -205
Flags: W
HStem: -125 41<124.747 219.982> 878 41<125.607 219.982>
VStem: 52 41<-52.2216 845.851>
LayerCount: 2
Fore
SplineSet
202 919 m 2
 214 919 220 909 220 899 c 0
 220 889 214 878 202 878 c 2
 179 878 l 2
 133 878 94 839 93 797 c 1
 93 2 l 2
 93 -46 131 -84 179 -84 c 2
 202 -84 l 2
 214 -84 220 -94 220 -104 c 0
 220 -114 214 -125 202 -125 c 2
 176 -125 l 1
 107 -123 52 -67 52 2 c 2
 52 797 l 2
 52 864 109 917 176 919 c 1
 202 919 l 2
EndSplineSet
Validated: 1
EndChar

StartChar: bracketright
Encoding: 93 93 87
Width: 149
VWidth: -205
Flags: W
HStem: -125 41<-69.9853 24.2526> 878 41<-69.9853 23.3931>
VStem: 56 41<-52.2216 845.851>
LayerCount: 2
Fore
SplineSet
-27 919 m 1
 40 917 97 864 97 797 c 2
 97 2 l 2
 97 -67 42 -123 -27 -125 c 1
 -53 -125 l 2
 -65 -125 -70 -114 -70 -104 c 0
 -70 -94 -65 -84 -53 -84 c 2
 -30 -84 l 2
 18 -84 56 -46 56 2 c 2
 56 797 l 1
 55 839 16 878 -30 878 c 2
 -53 878 l 2
 -65 878 -70 889 -70 899 c 0
 -70 909 -65 919 -53 919 c 2
 -27 919 l 1
EndSplineSet
Validated: 1
EndChar

StartChar: asciicircum
Encoding: 94 94 88
Width: 496
VWidth: -205
Flags: W
LayerCount: 2
Fore
SplineSet
70.9658 378 m 0
 69.9658 378 69.9658 379 68.9658 379 c 2
 49.9658 388 l 2
 46.5488 389.367 45 393.535 45 397.314 c 0
 45 399.066 45.332 400.733 45.9658 402 c 2
 229.966 777 l 2
 234.966 785 239.966 786 248.966 786 c 0
 257.966 786 263.966 784 267.966 777 c 2
 450.966 402 l 2
 451.599 400.733 451.932 399.066 451.932 397.314 c 0
 451.932 393.535 450.383 389.367 446.966 388 c 2
 427.966 379 l 2
 423.966 377 415.966 380 413.966 384 c 2
 256.966 704 l 2
 251.81 715.602 250.765 723.148 244.966 713 c 2
 82.9658 384 l 2
 81.2285 380.526 76.4746 377.807 72.6338 377.807 c 0
 72.0518 377.807 71.4912 377.868 70.9658 378 c 0
EndSplineSet
Validated: 1
EndChar

StartChar: grave
Encoding: 96 96 89
Width: 133
VWidth: -205
Flags: W
HStem: 537 218<46 87>
VStem: 46 41<537.004 754.982>
LayerCount: 2
Fore
SplineSet
67 755 m 0
 77 755 87 749 87 737 c 2
 87 555 l 2
 87 543 76.75 537 66.5 537 c 0
 56.25 537 46 543 46 555 c 2
 46 737 l 2
 46 749 57 755 67 755 c 0
EndSplineSet
Validated: 1
EndChar

StartChar: parenleft
Encoding: 40 40 90
Width: 218
VWidth: -205
Flags: W
VStem: 52 41<151.066 635.769>
LayerCount: 2
Fore
SplineSet
52 500 m 0
 52 749.051 212.387 869 247 869 c 0
 257.616 869 263.377 861.844 263.377 852.829 c 0
 263.377 844.012 257.867 833.417 246 826 c 0
 144.177 764.906 93 621.668 93 504 c 2
 93 287 l 2
 93 116.289 175.17 2.49805 246 -40 c 0
 257.965 -47.1787 263.408 -57.8574 263.408 -66.833 c 0
 263.408 -76.0459 257.674 -83.4648 247.371 -83.4648 c 0
 242.544 -83.4648 236.713 -81.8359 230 -78 c 0
 113.434 -11.3906 52 141 52 287 c 0
 52 500 l 0
EndSplineSet
Validated: 1
EndChar

StartChar: parenright
Encoding: 41 41 91
Width: 218
VWidth: -205
Flags: W
VStem: 125.408 41<150.497 635.803>
LayerCount: 2
Fore
SplineSet
166.408 287 m 0
 166.408 36.2549 5.04785 -83.4648 -28.9629 -83.4648 c 0
 -39.2656 -83.4648 -45 -76.0459 -45 -66.833 c 0
 -45 -57.8574 -39.5566 -47.1787 -27.5918 -40 c 0
 66.8252 16.6504 125.408 151.164 125.408 287 c 2
 125.408 504 l 2
 125.408 637.171 64.1973 770.927 -27.5918 826 c 0
 -39.459 833.417 -44.9688 844.012 -44.9688 852.829 c 0
 -44.9688 861.844 -39.208 869 -28.5918 869 c 0
 6.16602 869 166.408 748.898 166.408 500 c 0
 166.408 287 l 0
EndSplineSet
Validated: 1
EndChar

StartChar: bar
Encoding: 124 124 92
Width: 161
VWidth: -205
Flags: W
VStem: 60 41<-21.9956 811.982>
LayerCount: 2
Fore
SplineSet
80 812 m 0
 90 812 101 806 101 794 c 2
 101 -4 l 2
 101 -16 90.75 -22 80.5 -22 c 0
 70.25 -22 60 -16 60 -4 c 2
 60 794 l 2
 60 806 70 812 80 812 c 0
EndSplineSet
Validated: 1
EndChar

StartChar: braceleft
Encoding: 123 123 93
Width: 281
VWidth: -205
Flags: W
HStem: -127 41<257.747 352.982> 339 41<86.7498 152.52> 404 41<86.7498 152.852> 876 41<258.607 352.982>
VStem: 45 41<379.819 404.182> 185 41<-54.2216 307.32 478.433 843.235>
LayerCount: 2
Fore
SplineSet
185 0 m 2
 185 252 l 2
 185 300 147 339 99 339 c 1
 69 339 45 362 45 392 c 0
 45 422 69 445 99 445 c 1
 146 445 183 483 185 529 c 1
 185 795 l 2
 185 862 242 915 309 917 c 1
 335 917 l 2
 347 917 353 907 353 897 c 0
 353 887 347 876 335 876 c 2
 312 876 l 2
 266 876 227 836 226 794 c 1
 226 529 l 2
 226 462 168 404 99 404 c 1
 92 404 86 399 86 392 c 0
 86 385 92 380 99 380 c 1
 166 380 225 323 226 261 c 1
 226 0 l 2
 226 -48 264 -86 312 -86 c 2
 335 -86 l 2
 347 -86 353 -97 353 -107 c 0
 353 -117 347 -127 335 -127 c 2
 309 -127 l 1
 240 -125 185 -69 185 0 c 2
EndSplineSet
Validated: 1
EndChar

StartChar: braceright
Encoding: 125 125 94
Width: 281
VWidth: -205
Flags: W
HStem: -127 41<-71.9824 23.2526> 339 41<128.48 193.891> 404 41<128.148 193.891> 876 42.7773<-71.9824 22.3931>
VStem: 55 41<-54.2216 307.32 478.433 843.235> 195 41<379.904 404.096>
LayerCount: 2
Fore
SplineSet
-72 897 m 0
 -72 905.291 -54.0898 918.777 -46.8145 918.777 c 0
 -40.4443 918.777 -32 917 -28 917 c 0
 39 915 96 862 96 795 c 2
 96 529 l 1
 98 483 135 445 182 445 c 2
 183 445 l 2
 213 445 236 422 236 392 c 0
 236 362 213 339 183 339 c 2
 182 339 l 2
 134 339 96 300 96 252 c 2
 96 0 l 2
 96 -69 41 -125 -28 -127 c 1
 -54 -127 l 2
 -66 -127 -72 -117 -72 -107 c 0
 -72 -97 -66 -86 -54 -86 c 2
 -31 -86 l 2
 17 -86 55 -48 55 0 c 2
 55 261 l 1
 56 323 115 380 182 380 c 2
 183 380 l 2
 190 380 195 385 195 392 c 0
 195 399 190 404 183 404 c 2
 182 404 l 2
 113 404 55 462 55 529 c 2
 55 794 l 1
 54 836 15 876 -31 876 c 2
 -54 876 l 2
 -66 876 -72 887 -72 897 c 0
EndSplineSet
Validated: 1
EndChar

StartChar: less
Encoding: 60 60 95
Width: 481
VWidth: -210
Flags: W
HStem: -0.621094 21G<411.719 419.533>
VStem: 40 41<346.723 433.102>
LayerCount: 2
Fore
SplineSet
413 781 m 0
 425.178 781 436.469 769.126 436.469 757.875 c 0
 436.469 753.598 434.837 749.41 431 746 c 2
 104 436 l 2
 100.353 432.353 81 417.6 81 390 c 0
 81 358.083 104.807 344.193 114 335 c 2
 431 34 l 2
 434.938 30.5 436.597 26.2783 436.597 22.0029 c 0
 436.597 10.8691 425.337 -0.621094 413.729 -0.621094 c 0
 409.71 -0.621094 405.649 0.755859 402 4 c 2
 69 321 l 2
 51 339 40 363 40 390 c 0
 40 420 51.9834 445.819 75 465 c 1
 402 776 l 2
 405 779 409 781 413 781 c 0
EndSplineSet
Validated: 1
EndChar

StartChar: greater
Encoding: 62 62 96
Width: 481
VWidth: -210
Flags: W
HStem: -0.636719 21G<62.2739 69.8853>
VStem: 400.49 41<345.912 434.378>
LayerCount: 2
Fore
SplineSet
69.4902 781 m 0
 73.4902 781 76.4902 779 79.4902 776 c 2
 407.49 465 l 2
 416 457.909 441.49 435 441.49 390 c 0
 441.49 360.4 431.853 339.362 408.49 316 c 2
 79.4902 4 l 2
 75.8252 0.742188 71.8379 -0.636719 67.9326 -0.636719 c 0
 56.6152 -0.636719 46 10.9531 46 21.9961 c 0
 46 26.3252 47.6318 30.5703 51.4902 34 c 2
 368.49 335 l 2
 377.19 343.7 400.49 357 400.49 390 c 0
 400.49 417.6 382.037 432.453 378.49 436 c 2
 51.4902 746 l 2
 47.6533 749.41 46.0215 753.598 46.0215 757.875 c 0
 46.0215 769.126 57.3125 781 69.4902 781 c 0
EndSplineSet
Validated: 1
EndChar

StartChar: uncrossed_seven
Encoding: 256 -1 97
Width: 497
VWidth: -205
Flags: W
HStem: -1 21G<61.5 88.8999> -1 21G<61.5 88.8999> 750 41<54 418.561>
VStem: 54 41.2695<-0.994566 136.995> 419 41<705.861 749.442>
LayerCount: 2
Fore
SplineSet
95 83 m 0xb8
 95 62.2998 95.2695 46.46 95.2695 34.4268 c 0
 95.2695 6.34961 93.7998 -1 84 -1 c 2
 64 -1 l 2
 59 -1 54 5 54 10 c 2
 54 83 l 2
 54 103 59 127 73 150 c 2
 418 732 l 2
 419 733 419 736 419 737 c 0
 419 744 414 750 407 750 c 2
 64 750 l 2
 59 750 54 755 54 760 c 2
 54 781 l 2
 54 786 59 791 64 791 c 2
 408 791 l 1
 437 790 460 766 460 737 c 0
 460 726 459 718 452 707 c 2
 113 137 l 2
 105 122 95 111 95 83 c 0xb8
EndSplineSet
Validated: 1
Comment: "." 
EndChar

StartChar: uncrossed_zero
Encoding: 257 -1 98
Width: 510
VWidth: -205
Flags: W
HStem: -1 41<188.021 341.701> 750 41<187.688 340.196>
VStem: 60 41<125.397 661.939> 426 41<125.314 582 583 664.686>
LayerCount: 2
Fore
SplineSet
264 -1 m 0
 149 -1 60 92 60 203 c 0
 60 587 l 0
 60 700 151 791 264 791 c 0
 377 791 468 700 468 587 c 2
 468 583 l 1
 467 582 l 1
 467 196 l 1
 469 154 423 -1 264 -1 c 0
264 750 m 0
 174 750 101 677 101 587 c 2
 101 197 l 1
 104 110 176 40 264 40 c 0
 354 40 426 113 426 203 c 2
 426 582 l 1
 427 583 l 2
 427 584 426 586 426 587 c 0
 426 677 354 750 264 750 c 0
EndSplineSet
Validated: 33
Comment: "." 
EndChar

StartChar: uncrossed_z
Encoding: 258 -1 99
Width: 498
VWidth: -205
Flags: W
HStem: 2 41<124.862 461> 368 41<54 387.137>
LayerCount: 2
Fore
SplineSet
450 2 m 2
 64 2 l 2
 59 2 54 7 54 12 c 2
 54 33 l 2
 54 36 56 39 58 41 c 2
 387 359 l 2
 390 362 388 368 383 368 c 2
 64 368 l 2
 59 368 54 373 54 378 c 2
 54 399 l 2
 54 404 59 409 64 409 c 2
 450 409 l 2
 455 409 461 404 461 399 c 2
 461 378 l 2
 461 376 459 373 457 371 c 2
 125 49 l 2
 122 46 123 43 126 43 c 2
 450 43 l 2
 455 43 461 38 461 33 c 2
 461 12 l 2
 461 7 455 2 450 2 c 2
EndSplineSet
Validated: 1
Comment: "." 
EndChar

StartChar: uncrossed_Z
Encoding: 259 -1 100
Width: 524
VWidth: -205
Flags: W
HStem: 0 42<94.0939 481.8> 750 41<58.7998 446.36>
VStem: 52.7998 41<42.4818 82.5774> 446.8 41<703.338 749.915>
LayerCount: 2
Fore
SplineSet
105.8 0 m 2
 92.7998 0 52.7998 12 52.7998 54 c 0
 52.7998 69 58.7998 79 61.7998 84 c 2
 444.8 731 l 2
 445.8 733 446.8 735 446.8 738 c 0
 446.8 745 441.8 750 434.8 750 c 2
 69.7998 750 l 2
 64.7998 750 58.7998 755 58.7998 760 c 2
 58.7998 781 l 2
 58.7998 786 64.7998 791 69.7998 791 c 2
 435.8 791 l 1
 464.8 790 487.8 767 487.8 738 c 0
 487.8 725 484.8 717 477.8 706 c 2
 96.7998 61 l 2
 95.7998 59 93.7998 57 93.7998 54 c 0
 93.7998 47 99.7998 42 106.8 42 c 2
 470.8 42 l 2
 475.8 42 481.8 37 481.8 32 c 2
 481.8 11 l 2
 481.8 6 475.8 0 470.8 0 c 2
 105.8 0 l 2
EndSplineSet
Validated: 1
Comment: "." 
EndChar

StartChar: glyph_design_template
Encoding: 260 -1 101
Width: 814
VWidth: -405
Flags: W
HStem: -384 7<69 235 243 413 418 642> -7 5<69 235 243 413 418 642> 196 7<69 235 243 413 418 642> 401 9<69 235 243 413 418 642> 782 6<69 235 243 413 418 642>
VStem: 60 9<-377 -7 -2 196 203 401 410 782> 235 8<-377 -7 -2 196 203 401 410 782> 413 5<-377 -7 -2 196 203 401 410 782> 642 130<-377 -7 -2 196 203 401 410 782>
LayerCount: 2
Fore
SplineSet
60 788 m 1
 772 788 l 1
 772 -384 l 1
 60 -384 l 1
 60 788 l 1
69 782 m 1
 69 410 l 1
 235 410 l 1
 235 782 l 1
 69 782 l 1
243 782 m 1
 243 410 l 1
 413 410 l 1
 413 782 l 1
 243 782 l 1
418 782 m 1
 418 410 l 1
 642 410 l 1
 642 782 l 1
 418 782 l 1
69 401 m 1
 69 203 l 1
 235 203 l 1
 235 401 l 1
 69 401 l 1
243 401 m 1
 243 203 l 1
 413 203 l 1
 413 401 l 1
 243 401 l 1
418 401 m 1
 418 203 l 1
 642 203 l 1
 642 401 l 1
 418 401 l 1
69 196 m 1
 69 -2 l 1
 235 -2 l 1
 235 196 l 1
 69 196 l 1
243 196 m 1
 243 -2 l 1
 413 -2 l 1
 413 196 l 1
 243 196 l 1
418 196 m 1
 418 -2 l 1
 642 -2 l 1
 642 196 l 1
 418 196 l 1
69 -7 m 1
 69 -377 l 1
 235 -377 l 1
 235 -7 l 1
 69 -7 l 1
243 -7 m 1
 243 -377 l 1
 413 -377 l 1
 413 -7 l 1
 243 -7 l 1
418 -7 m 1
 418 -377 l 1
 642 -377 l 1
 642 -7 l 1
 418 -7 l 1
EndSplineSet
Validated: 1
Comment: "." 
EndChar

StartChar: exclamdown
Encoding: 161 161 102
Width: 187
VWidth: -205
Flags: W
HStem: 0 21G<96.375 106.625> 714 41<89.3771 113.443> 780 41<89.3771 113.443>
VStem: 48 41<755.377 779.443> 81 41<0.00439453 638.996> 114 41<755.377 779.443>
LayerCount: 2
Fore
SplineSet
122 18 m 2xe8
 122 6 111.75 0 101.5 0 c 0
 91.25 0 81 6 81 18 c 2
 81 621 l 2
 81 633 91.25 639 101.5 639 c 0
 111.75 639 122 633 122 621 c 2
 122 18 l 2xe8
102 714 m 0
 72 714 48 738 48 768 c 0
 48 798 72 821 102 821 c 0
 132 821 155 798 155 768 c 0xf4
 155 738 132 714 102 714 c 0
102 755 m 0
 109 755 114 761 114 768 c 0
 114 775 109 780 102 780 c 0
 95 780 89 775 89 768 c 0
 89 761 95 755 102 755 c 0
EndSplineSet
Validated: 1
EndChar

StartChar: brokenbar
Encoding: 166 166 103
Width: 153
VWidth: -205
Flags: W
VStem: 66 41<-23.9956 357.996 455.004 809.996>
LayerCount: 2
Fore
SplineSet
66 340 m 2
 66 352 76.25 358 86.5 358 c 0
 96.75 358 107 352 107 340 c 2
 107 -6 l 2
 107 -18 96.75 -24 86.5 -24 c 0
 76.25 -24 66 -18 66 -6 c 2
 66 340 l 2
66 792 m 2
 66 804 76.25 810 86.5 810 c 0
 96.75 810 107 804 107 792 c 2
 107 473 l 2
 107 461 96.75 455 86.5 455 c 0
 76.25 455 66 461 66 473 c 2
 66 792 l 2
EndSplineSet
Validated: 1
EndChar

StartChar: copyright
Encoding: 169 169 104
Width: 675
VWidth: -205
Flags: W
HStem: 199 41<246.303 439.566> 290 41<265.688 420.158> 656 41<263.384 420.382> 747 41<246.303 439.566>
VStem: 48 41<397.303 590.566> 138 41<418.2 568.8> 596 41<397.303 590.566>
LayerCount: 2
Fore
SplineSet
343 788 m 0
 506 788 637 657 637 494 c 0
 637 331 506 199 343 199 c 0
 180 199 48 331 48 494 c 0
 48 657 180 788 343 788 c 0
343 747 m 0
 203 747 89 634 89 494 c 0
 89 354 203 240 343 240 c 0
 483 240 596 354 596 494 c 0
 596 634 483 747 343 747 c 0
342 697 m 0
 403.286 697 476.758 661.259 476.758 640.292 c 0
 476.758 637.995 475.876 635.876 474 634 c 1
 459 621 l 1
 456.973 619.449 454.916 618.767 452.73 618.767 c 0
 436.586 618.767 413.34 656 342 656 c 0
 252 656 179 584 179 494 c 0
 179 404 252 331 342 331 c 0
 412.459 331 437.151 368.233 452.971 368.233 c 0
 455.112 368.233 457.092 367.551 459 366 c 2
 474 353 l 1
 475.651 351.349 476.435 349.423 476.435 347.292 c 0
 476.435 327.495 408.81 290 342 290 c 0
 229 290 138 380 138 493 c 2
 138 494 l 2
 138 607 229 697 342 697 c 0
EndSplineSet
Validated: 1
EndChar

StartChar: degree
Encoding: 176 176 105
Width: 335
VWidth: -205
Flags: W
HStem: 534 41<114.044 223.956> 748 41<114.044 223.956>
VStem: 42 41<606.044 716.256> 255 41<606.044 716.256>
LayerCount: 2
Fore
SplineSet
169 789 m 0
 239 789 296 731 296 661 c 0
 296 591 239 534 169 534 c 0
 99 534 42 591 42 661 c 0
 42 731 99 789 169 789 c 0
169 748 m 0
 121 748 83 709 83 661 c 0
 83 613 121 575 169 575 c 0
 217 575 255 613 255 661 c 0
 255 709 217 748 169 748 c 0
EndSplineSet
Validated: 1
EndChar

StartChar: plusminus
Encoding: 177 177 106
Width: 511
VWidth: -410
Flags: W
HStem: 85.7598 41.2969<54.0045 235.446 276.743 457.441> 268.197 41.2969<54.3795 235.442 276.747 457.816>
VStem: 235.446 41.2969<127.057 268.197 309.498 490.567>
LayerCount: 2
Fore
SplineSet
235.446 472.666 m 2
 235.417 484.538 245.811 490.571 256.177 490.571 c 0
 266.433 490.571 276.661 484.666 276.743 472.666 c 2
 276.743 319.713 l 2
 276.743 314.904 282.156 309.494 286.962 309.494 c 2
 439.915 309.494 l 2
 451.916 309.411 457.82 299.184 457.82 288.93 c 0
 457.82 278.562 451.785 268.166 439.915 268.197 c 2
 286.962 268.197 l 2
 282.156 268.197 276.743 262.785 276.743 257.979 c 2
 276.743 127.057 l 1
 439.54 127.057 l 2
 451.54 126.973 457.445 116.744 457.445 106.489 c 0
 457.445 96.1231 451.412 85.7303 439.54 85.7598 c 2
 71.8994 85.7598 l 2
 60.027 85.7293 54 96.1156 54 106.478 c 0
 54 116.738 59.9078 126.975 71.8994 127.057 c 2
 235.446 127.057 l 1
 235.446 257.979 l 2
 235.446 262.785 230.035 268.197 225.228 268.197 c 2
 72.2744 268.197 l 2
 60.402 268.167 54.375 278.553 54.375 288.915 c 0
 54.375 299.175 60.2828 309.412 72.2744 309.494 c 2
 225.228 309.494 l 2
 230.035 309.494 235.446 314.904 235.446 319.713 c 2
 235.446 472.666 l 2
EndSplineSet
Validated: 1
EndChar

StartChar: questiondown
Encoding: 191 191 107
Width: 487
VWidth: -205
Flags: W
HStem: -1 41<175.688 328.127> 712 41<238.377 262.443> 778 41<238.377 262.443>
VStem: 48 41<126.688 280.852> 197 41<753.377 777.443> 230 41<417.478 636.996> 263 41<753.377 777.443> 414 41<124.384 276.843>
LayerCount: 2
Fore
SplineSet
252 -1 m 0xf5
 139 -1 48 90 48 203 c 0
 48 255 71 349 177 393 c 0
 206 405 232 436 230 472 c 1
 230 619 l 2
 230 631 240.25 637 250.5 637 c 0
 260.75 637 271 631 271 619 c 2
 271 472 l 2
 271 400 219 366 188 353 c 0
 155 339 89 293 89 203 c 0
 89 113 162 40 252 40 c 0
 342 40 414 113 414 203 c 0
 414 225 410 247 402 266 c 0
 401.211 267.973 400.85 269.956 400.85 271.904 c 0
 400.85 283.415 413.45 293.724 424.793 293.724 c 0
 430.992 293.724 436.814 290.645 440 283 c 0
 450 259 455 231 455 203 c 0
 455 90 365 -1 252 -1 c 0xf5
251 712 m 0
 221 712 197 736 197 766 c 0
 197 796 221 819 251 819 c 0
 281 819 304 796 304 766 c 0xfb
 304 736 281 712 251 712 c 0
251 753 m 0
 258 753 263 759 263 766 c 0
 263 773 258 778 251 778 c 0
 244 778 238 773 238 766 c 0
 238 759 244 753 251 753 c 0
EndSplineSet
Validated: 33
EndChar

StartChar: section
Encoding: 167 167 108
Width: 510
VWidth: -205
Flags: W
HStem: -384 41<185.987 341.921> 0 41<186.482 340.17> 366 41<185.928 341.196> 750 41<187.287 342.013>
VStem: 60 41<-256.249 -165 128.672 281.335 327 665.454> 426 41<-254.845 81 128.205 279.172 573 664.11>
LayerCount: 2
Fore
SplineSet
60 588 m 1
 64 722 169 791 264 791 c 0
 376 791 467 702 468 590 c 1
 468 584 l 2
 468 579 463 573 458 573 c 2
 437 573 l 2
 432 573 427 579 427 584 c 2
 427 590 l 1
 426 679 353 750 264 750 c 0
 174 750 101 678 101 588 c 2
 101 327 l 1
 160 404 244 407 264 407 c 0
 384 407 468 307 468 204 c 0
 468 200 467 196 467 193 c 2
 467 -180 l 1
 462 -317 356 -384 264 -384 c 0
 152 -384 61 -294 60 -182 c 1
 60 -176 l 2
 60 -171 65 -165 70 -165 c 2
 91 -165 l 2
 96 -165 101 -171 101 -176 c 2
 101 -182 l 1
 102 -271 175 -343 264 -343 c 0
 354 -343 426 -270 426 -180 c 2
 426 81 l 1
 387 29 327 0 264 0 c 0
 143 0 60 101 60 204 c 2
 60 588 l 1
426 204 m 2
 426 296 352 366 264 366 c 0
 174 366 102 293 101 205 c 1
 101 204 l 2
 101 112 176 41 264 41 c 0
 358 41 425 119 426 203 c 1
 426 204 l 2
EndSplineSet
Validated: 1
EndChar

StartChar: registered
Encoding: 174 174 109
Width: 697
VWidth: -205
Flags: W
HStem: 199 41<258.303 451.566> 470 41<314.081 423.956> 683 41<283.057 423.913> 747 41<258.303 451.566>
VStem: 60 41<397.303 590.566> 242 41<274 447 541.88 682.431> 455 41<542.044 651.956> 608 41<397.303 590.566>
LayerCount: 2
Fore
SplineSet
355 788 m 0
 518 788 649 657 649 494 c 0
 649 331 518 199 355 199 c 0
 192 199 60 331 60 494 c 0
 60 657 192 788 355 788 c 0
355 747 m 0
 215 747 101 634 101 494 c 0
 101 354 215 240 355 240 c 0
 495 240 608 354 608 494 c 0
 608 634 495 747 355 747 c 0
293 724 m 2
 369 724 l 2
 439 724 496 667 496 597 c 0
 496 527 439 470 369 470 c 0
 346 470 326 476 310 484 c 0
 304 487 305 483 305 483 c 1
 481 303 l 2
 484 299 486 295 486 291 c 0
 486 280 474 269 463 269 c 0
 459 269 455 270 451 274 c 2
 283 447 l 1
 283 284 l 2
 283 279 278 274 273 274 c 2
 252 274 l 2
 247 274 242 279 242 284 c 0
 242 674 l 0
 242 700 266 724 293 724 c 2
369 683 m 2
 293 683 l 2
 288 683 283 677 283 672 c 2
 283 592 l 1
 286 547 323 511 369 511 c 0
 417 511 455 549 455 597 c 0
 455 645 417 683 369 683 c 2
EndSplineSet
Validated: 1
EndChar

StartChar: trademark
Encoding: 261 8482 110
Width: 1022
VWidth: -205
Flags: W
HStem: 379 41<326.474 397> 746 41<48 201 242 396.971 479.375 614.164 750.777 884.098>
VStem: 201 41<507.449 746 787 932> 397 41<420 705.549> 667 41<379 697.044> 937 41<379 696.562>
LayerCount: 2
Fore
SplineSet
539 786 m 2
 650.144 786 676.604 722 685 722 c 0
 698 722 720 784 808 786 c 0
 814 786 l 0
 911 786 977 735 978 625 c 1
 978 390 l 2
 978 384 973 379 968 379 c 2
 947 379 l 2
 942 379 937 385 937 390 c 2
 937 625 l 2
 937 714 876 744 808 744 c 0
 755 744 708 704 708 651 c 2
 708 390 l 2
 708 385 703 379 698 379 c 2
 677 379 l 2
 672 379 667 385 667 390 c 2
 667 625 l 2
 667 714 606 744 538 744 c 0
 485 744 438 704 438 651 c 2
 438 390 l 2
 438 385 433 379 428 379 c 2
 405 379 l 2
 293 379 202 468 201 580 c 1
 201 746 l 1
 59 746 l 2
 54 746 48 751 48 756 c 2
 48 777 l 2
 48 782 54 787 59 787 c 2
 201 787 l 1
 201 922 l 2
 201 927 206 932 211 932 c 2
 232 932 l 2
 237 932 242 927 242 922 c 2
 242 787 l 1
 402 787 l 2
 418 787 438 773 438 751 c 2
 438 744 l 1
 465 769 488 786 538 786 c 2
 539 786 l 2
242 746 m 1
 242 599 l 2
 242 594 243 589 243 583 c 0
 243 496 311 424 397 420 c 1
 397 725 l 2
 397 734 387 746 378 746 c 2
 242 746 l 1
EndSplineSet
Validated: 1
EndChar

StartChar: i_alternate.262
Encoding: 262 -1 111
Width: 339
VWidth: -665
Flags: W
HStem: 0.574219 41.25<54.0096 149.299 190.549 285.65> 366.9 41.25<82.369 149.294> 487.65 41.7939<137.555 161.062> 552.923 41.8389<137.555 161.062>
VStem: 95.4395 41.4844<529.92 552.447> 149.299 41.25<41.8293 366.895> 161.064 41.4844<529.92 552.447>
LayerCount: 2
Fore
SplineSet
148.972 594.762 m 0xfa
 178.537 594.762 202.549 570.75 202.549 541.182 c 0
 202.549 511.615 178.537 487.65 148.971 487.65 c 0
 119.404 487.65 95.4395 511.615 95.4395 541.182 c 0
 95.4395 570.75 119.404 594.762 148.972 594.762 c 0xfa
161.064 541.182 m 0
 161.064 548.924 154.899 552.923 148.801 552.923 c 0
 142.831 552.923 136.924 549.09 136.924 541.182 c 0
 136.924 533.276 142.831 529.444 148.801 529.444 c 0
 154.9 529.444 161.064 533.442 161.064 541.182 c 0
93.0488 408.15 m 2
 180.283 408.15 l 2
 185.479 408.267 190.795 401.781 190.549 397.275 c 2
 190.549 55.6992 l 2
 190.69 49.0283 198.961 41.8203 206.393 41.8242 c 2
 274.971 41.8242 l 2
 279.579 41.6582 285.67 36.5479 285.658 31.5566 c 2
 285.658 10.8379 l 2
 285.772 5.64453 279.477 0.326172 274.971 0.574219 c 2
 180.283 0.574219 l 1
 159.564 0.337891 l 2
 159.219 0.337891 158.877 0.518555 158.533 0.574219 c 2
 64.6895 0.574219 l 2
 60.1836 0.326172 53.8857 5.64355 54.002 10.8379 c 2
 54.002 31.5566 l 2
 53.9883 36.5479 60.0811 41.6582 64.6895 41.8242 c 2
 133.408 41.8242 l 2
 141.612 41.8438 149.678 47.4297 149.299 55.6992 c 2
 149.299 353.262 l 2xfc
 149.299 360.076 142.514 366.9 135.236 366.9 c 2
 93.0488 366.9 l 2
 88.543 366.654 82.2451 371.973 82.3613 377.166 c 2
 82.3613 397.887 l 2
 82.3496 402.876 88.4404 407.986 93.0488 408.15 c 2
EndSplineSet
Validated: 1
EndChar

StartChar: j_alternate.263
Encoding: 263 -1 112
Width: 217
VWidth: -665
Flags: W
HStem: -382.539 41.25<-118.179 36.2133> 366.336 41.2969<54.4062 121.336> 486.57 41.4854<109.375 132.254> 552.196 41.4844<109.375 132.254>
VStem: -244.992 41.2969<-254.911 -164.062> 66.6328 41.4844<531.22 552.194> 121.336 41.2969<-256.311 366.331> 132.258 41.4844<528.686 552.194>
LayerCount: 2
Fore
SplineSet
120.164 593.681 m 0xfd
 149.73 593.682 173.742 569.669 173.742 540.103 c 0
 173.742 510.535 149.731 486.57 120.164 486.57 c 0
 90.5967 486.57 66.6328 510.535 66.6328 540.103 c 0
 66.6328 569.669 90.5967 593.68 120.164 593.681 c 0xfd
120.164 552.196 m 0
 113.504 552.196 108.117 546.762 108.117 540.103 c 0
 108.117 533.441 113.504 528.055 120.164 528.056 c 0
 126.824 528.057 132.258 533.442 132.258 540.103 c 0
 132.258 546.762 126.824 552.196 120.164 552.196 c 0
65.0859 407.633 m 1
 131.602 407.633 l 1
 148.664 407.633 l 1
 152.367 407.633 l 1
 158.934 407.61 162.63 402.415 162.633 397.133 c 0
 162.678 332.664 162.633 268.194 162.633 203.727 c 1
 162.633 2.49316 l 1
 162.633 -87.4609 l 1
 162.633 -178.867 l 1
 162.445 -185.007 l 1
 159.17 -294.677 69.1895 -382.539 -41.2734 -382.539 c 0
 -153.117 -382.539 -243.844 -292.463 -244.992 -180.882 c 0
 -244.999 -180.195 -244.992 -174.743 -244.992 -174.742 c 1
 -245.239 -170.236 -239.922 -163.939 -234.727 -164.055 c 1
 -213.961 -164.055 l 1
 -208.971 -164.042 -203.86 -170.135 -203.695 -174.742 c 1
 -203.695 -180.882 l 1
 -202.57 -269.668 -130.326 -341.289 -41.2734 -341.289 c 0
 48.4824 -341.29 121.336 -268.623 121.336 -178.867 c 1
 121.336 -87.4609 l 1
 121.336 2.49316 l 1
 121.336 203.727 l 1
 121.336 352.602 l 1xfe
 121.336 359.417 114.456 366.336 107.18 366.336 c 1
 93.2109 366.336 l 1
 65.0859 366.336 l 1
 60.5801 366.09 54.2832 371.407 54.3984 376.602 c 1
 54.3984 397.368 l 1
 54.3857 402.357 60.4785 407.469 65.0859 407.633 c 1
EndSplineSet
Validated: 33
EndChar

StartChar: Et.264
Encoding: 264 -1 113
Width: 648
VWidth: -205
Flags: W
HStem: 1.79102 41.2969<133.272 466.584 513.149 605.193> 367.932 41.2969<101.297 341.334 427.592 610.833> 751.51 41.2969<132.488 466.397>
VStem: 60 41.2969<73.8666 367.843 409.229 665.221 665.26 720.084> 386.297 41.2949<129.284 367.932 409.229 597.565>
LayerCount: 2
Fore
SplineSet
191.625 792.807 m 1
 455.717 792.807 l 2
 460.326 792.643 466.416 787.53 466.404 782.541 c 2
 466.404 761.775 l 2
 466.521 756.58 460.223 751.264 455.717 751.51 c 2
 187.312 751.51 l 2
 139.77 751.51 101.062 712.802 101.062 665.26 c 1
 100.875 665.26 l 2
 101.131 664.426 101.338 663.595 101.297 662.822 c 2
 101.297 422.26 l 2
 101.297 417.079 108.256 409.229 115.453 409.229 c 2
 330.654 409.229 l 2
 335.264 409.064 341.354 403.953 341.342 398.963 c 2
 341.342 378.197 l 2
 341.457 373.002 335.161 367.686 330.654 367.932 c 2
 115.453 367.932 l 1
 108.679 366.115 101.297 359.46 101.297 352.744 c 2
 101.297 124.604 l 1
 103.572 78.8392 140.937 42.8247 188.342 42.9004 c 2
 297.375 43.0879 l 1
 455.904 43.0879 l 2
 460.514 42.9238 466.604 37.8125 466.592 32.8223 c 2
 466.592 12.0566 l 2
 466.708 6.86133 460.41 1.54395 455.904 1.79102 c 2
 187.312 1.79102 l 2
 118.677 1.79102 62.4863 56.1514 60 124.182 c 1
 60 662.822 l 2
 60.0264 663.59 60.1416 664.444 60.4219 665.26 c 2
 60 665.26 l 1
 60 735.473 117.1 792.76 187.312 792.76 c 2
 191.625 792.807 l 1
396.562 597.572 m 2
 417.328 597.572 l 2
 422.523 597.688 427.84 591.438 427.592 586.932 c 2
 427.592 409.229 l 1
 600.279 409.229 l 2
 604.888 409.064 610.746 403.953 610.732 398.963 c 2
 610.967 378.197 l 2
 611.083 373.002 604.599 367.686 600.092 367.932 c 2
 427.592 367.932 l 1
 427.592 221.588 l 2
 427.896 216.519 428.016 211.213 428.016 205.604 c 0
 428.016 115.848 500.895 41.8945 590.625 42.9473 c 0
 615.334 43.2383 620.094 1.69727 590.625 1.69727 c 0
 478.781 1.69727 387.451 91.7236 386.342 203.307 c 1
 386.297 367.932 l 1
 386.297 586.932 l 2
 386.459 591.541 391.572 597.584 396.562 597.572 c 2
EndSplineSet
Validated: 33
EndChar

StartChar: w_alternate.265
Encoding: 265 -1 114
Width: 677
VWidth: -205
Flags: W
LayerCount: 2
Fore
SplineSet
66.124 408.635 m 0
 76.085 408.597 85.0254 407.587 88.7119 397.545 c 1
 92.8193 384.404 l 1
 101.443 357.709 l 1
 118.486 304.523 l 1
 152.368 198.36 l 1
 193.643 69.1963 l 1
 256.068 192.199 l 1
 319.109 316.023 l 1
 320.228 318.04 323.363 324.712 338.414 324.712 c 0
 353.461 324.712 356.598 318.039 357.716 316.023 c 1
 420.757 192.199 l 1
 483.183 69.1963 l 1
 524.457 198.36 l 1
 558.545 304.523 l 1
 575.588 357.709 l 1
 584.008 384.404 l 1
 588.32 397.545 l 1
 592.008 407.587 600.74 408.597 610.703 408.635 c 0
 620.664 408.672 631.011 407.986 631.032 397.34 c 0
 631.032 397.218 630.709 396.144 630.622 395.698 c 0
 630.273 393.915 629.859 392.537 629.596 391.796 c 1
 627.541 385.02 l 1
 623.228 371.877 l 1
 614.811 345.184 l 1
 597.766 291.998 l 1
 563.678 185.628 l 1
 534.314 93.6328 l 1
 519.733 47.6348 l 1
 512.342 24.6357 l 1
 508.646 13.1367 l 1
 506.797 7.38672 l 1
 505.363 2.08301 494.518 -0.145508 489.342 -0.210938 c 0
 483.803 -0.28125 471.057 1.83105 465.522 13.1367 c 1
 383.795 173.512 l 1
 361.104 218.277 l 1
 349.759 240.66 l 1
 344.086 251.852 l 1
 341.25 257.447 l 1
 340.229 259.662 336.74 259.626 335.576 257.447 c 1
 332.74 251.852 l 1
 327.068 240.66 l 1
 315.722 218.277 l 1
 293.031 173.512 l 1
 211.303 13.1367 l 1
 205.771 1.83105 193.023 -0.28125 187.482 -0.210938 c 0
 182.31 -0.145508 171.463 2.08301 170.028 7.38672 c 1
 168.18 13.1367 l 1
 164.484 24.6357 l 1
 157.092 47.6348 l 1
 142.513 93.6328 l 1
 113.146 185.628 l 1
 79.0605 291.998 l 1
 62.2217 345.184 l 1
 53.5967 371.877 l 1
 49.4893 385.02 l 1
 47.2305 391.796 l 1
 46.9668 392.537 46.5557 393.916 46.2051 395.698 c 0
 46.1172 396.144 46 397.218 46 397.34 c 0
 46.0205 407.987 56.1621 408.672 66.124 408.635 c 0
EndSplineSet
Validated: 1
EndChar

StartChar: W_alternate.266
Encoding: 266 -1 115
Width: 692
VWidth: -205
Flags: W
HStem: -2.76953 41.4844<218.795 245.184 447.18 473.56> 339.699 41.4844<332.945 359.657> 772.964 20G<70.3567 80.577 611.829 622.053>
LayerCount: 2
Fore
SplineSet
54.2637 771.559 m 2
 52.0772 784.909 64.4927 792.964 76.2207 792.964 c 0
 84.9333 792.964 93.2664 788.518 94.9512 778.496 c 2
 219.592 48.3242 l 2
 220.279 44.2458 224.574 38.7148 231.451 38.7148 c 0
 233.898 38.7148 242.269 39.8116 243.686 50.0117 c 2
 293.326 335.762 l 2
 297.923 362.16 319.488 381.184 346.248 381.184 c 0
 374.062 381.184 394.879 359.666 399.545 332.809 c 2
 448.67 50.0117 l 2
 450.087 39.8116 458.457 38.7148 460.904 38.7148 c 0
 468.02 38.7148 472.189 44.9696 472.764 48.3242 c 2
 597.404 778.496 l 2
 599.098 788.571 607.463 793.05 616.195 793.05 c 0
 627.912 793.05 640.289 784.985 638.092 771.559 c 2
 513.92 43.3086 l 2
 510.288 17.2754 487.938 -2.76953 460.904 -2.76953 c 0
 433.396 -2.76953 410.729 17.9688 407.701 44.668 c 1
 358.623 327.09 l 2
 358.124 329.956 356.148 339.699 346.248 339.699 c 0
 338.978 339.699 334.912 333.921 333.686 326.855 c 2
 284.654 44.668 l 1
 281.625 17.9697 258.958 -2.76953 231.451 -2.76953 c 0
 204.416 -2.76953 182.065 17.2754 178.436 43.3086 c 2
 54.2637 771.559 l 2
EndSplineSet
Validated: 1
EndChar

StartChar: M_alternate.267
Encoding: 267 -1 116
Width: 703
VWidth: -205
Flags: W
HStem: 5.04102 36.7559<299.194 404.403>
VStem: 60 41.2754<1.14638 369.316 510.84 793.357> 602.525 41.2764<1.14638 369.891 510.84 793.357>
LayerCount: 2
Fore
SplineSet
70.2676 793.365 m 1
 91.0078 793.365 l 1
 96.2021 793.48 101.275 787.043 101.275 782.688 c 1
 101.275 765.232 l 1
 101.316 762.003 101.426 758.803 101.48 755.582 c 0
 101.695 742.838 101.874 730.169 102.302 717.594 c 0
 103.157 692.44 104.532 667.644 106.203 643.257 c 0
 109.543 594.484 114.437 547.315 120.782 502.391 c 0
 133.473 412.538 151.894 331.386 174.583 263.16 c 0
 219.961 126.712 282.583 41.7969 351.799 41.7969 c 0
 421.012 41.7969 483.635 126.712 529.012 263.16 c 0
 551.701 331.386 570.121 412.538 582.812 502.391 c 0
 589.158 547.315 594.052 594.484 597.393 643.257 c 0
 599.062 667.644 600.44 692.44 601.295 717.594 c 0
 601.723 730.169 601.9 742.839 602.115 755.582 c 0
 602.223 761.953 602.475 768.268 602.525 774.68 c 0
 602.527 774.879 602.451 775.082 602.525 775.09 c 1
 602.525 782.688 l 1
 602.689 787.296 607.803 793.377 612.794 793.365 c 1
 633.535 793.365 l 1
 638.729 793.48 643.802 787.043 643.802 782.688 c 1
 643.802 397.252 l 1
 643.802 11.8164 l 1
 644.048 7.31055 638.729 1.02344 633.535 1.13867 c 1
 612.794 1.13867 l 1
 607.803 1.12598 602.689 7.20801 602.525 11.8164 c 1
 602.525 201.249 l 1
 602.525 302.934 l 1
 602.525 346.808 l 1
 602.525 368.744 l 1
 602.576 371.746 598.465 372.992 597.748 369.742 c 0
 596.234 362.878 594.467 356.065 592.748 349.246 c 0
 589.34 335.732 585.786 322.522 582.086 309.631 c 0
 574.688 283.852 566.71 259.35 558.172 236.26 c 0
 505.361 93.457 432.354 5.04102 351.799 5.04102 c 0
 271.242 5.04102 198.231 93.4551 145.424 236.26 c 0
 136.927 259.237 128.991 283.613 121.629 309.256 c 0
 117.947 322.078 114.411 335.217 111.018 348.654 c 0
 109.305 355.436 107.647 362.231 106.037 369.038 c 0
 104.61 375.071 101.048 373.831 101.275 367.685 c 1
 101.275 345.508 l 1
 101.275 301.157 l 1
 101.275 200.838 l 1
 101.275 11.8164 l 1
 101.521 7.31152 96.2021 1.02344 91.0078 1.13867 c 1
 70.2676 1.13867 l 1
 65.2764 1.12695 60.166 7.20801 60 11.8164 c 1
 60 397.252 l 1
 60 782.688 l 1
 60.166 787.296 65.2764 793.377 70.2676 793.365 c 1
EndSplineSet
Validated: 1
EndChar
